<svg width="164" height="41" viewBox="0 0 164 41" fill="none" xmlns="http://www.w3.org/2000/svg">
<path d="M5.05474 12.4313C5.05474 14.963 5.05474 17.0464 4.92288 18.154C4.81739 18.9188 4.71191 19.5253 4.18447 19.6308C3.94712 19.6835 3.76252 19.7099 3.55154 19.7099C3.20871 19.7099 3.15597 19.8154 3.15597 19.8945C3.15597 20.0264 3.28783 20.0791 3.57792 20.0791C4.50093 20.0791 5.31846 20 6.16236 20C6.26785 20 7.00626 20.0264 7.77104 20.0791C8.53583 20.1055 9.37973 20.1582 9.66982 20.1582C14.1794 20.1582 16.3946 17.231 16.3946 14.4092C16.3946 11.3237 13.7838 9.45126 11.8323 8.8447C13.0718 7.55248 14.3113 6.26026 14.3113 4.09777C14.3113 2.77917 13.3619 0.14199 9.03689 0.14199C7.82379 0.14199 6.79528 0.221104 6.16236 0.221104C6.0305 0.221104 4.36907 0.14199 3.18234 0.14199C2.89225 0.14199 2.76039 0.194733 2.76039 0.352964C2.76039 0.458451 2.86588 0.511196 3.10322 0.511196C3.20871 0.511196 3.65703 0.537567 3.86801 0.59031C4.73828 0.774914 4.94925 1.19686 5.002 2.09351C5.05474 2.93741 5.05474 3.67582 5.05474 7.78983V12.4313ZM7.16449 1.30235C7.16449 1.14412 7.24361 1.065 7.48095 1.01226C7.9029 0.906773 8.45671 0.880402 8.7468 0.880402C11.3312 0.880402 12.307 3.2275 12.307 5.41636C12.307 6.49761 11.9114 7.447 11.3576 8.07992C10.8038 8.71284 10.4346 8.76559 8.95778 8.76559C7.98202 8.76559 7.50732 8.68647 7.34909 8.6601C7.21723 8.60736 7.16449 8.55461 7.16449 8.37001V1.30235ZM7.16449 9.66223C7.16449 9.53037 7.21723 9.47763 7.32272 9.47763C7.7183 9.47763 9.03689 9.47763 9.37973 9.53037C10.0127 9.60949 10.6719 9.6886 11.5686 10.2952C13.5992 11.6929 14.1267 13.9872 14.1267 15.5695C14.1267 18.5495 11.8323 19.3143 10.4082 19.3143C9.93353 19.3143 8.79955 19.2616 8.0875 18.9188C7.26998 18.5232 7.26998 18.154 7.19086 16.8617C7.16449 16.4662 7.16449 13.1961 7.16449 11.1654V9.66223ZM22.1925 13.5653C22.1925 15.5695 22.1662 16.6508 22.1398 17.5474C22.087 19.1825 21.7706 19.5253 21.2959 19.6308C21.1113 19.6835 20.9267 19.7099 20.7685 19.7099C20.6366 19.7099 20.5311 19.789 20.5311 19.8945C20.5311 20.0264 20.663 20.0791 20.9003 20.0791C21.5332 20.0791 22.0343 20 22.6409 20C23.6166 20 24.8297 20.0527 25.7527 20.0791C26.6758 20.0791 27.4142 20.1319 29.1547 20.1319C30.025 20.1319 30.2096 20.0791 30.3151 19.5517C30.3942 19.1034 30.6052 17.4419 30.6052 17.2573C30.6052 17.0991 30.6052 16.8617 30.4469 16.8617C30.3414 16.8617 30.2623 16.9672 30.2096 17.231C29.9986 18.2067 29.814 18.7342 29.0228 18.9715C28.3636 19.1561 27.5197 19.1297 27.0186 19.1297C26.1219 19.1297 25.489 19.077 25.0934 18.8924C24.5396 18.655 24.4078 18.154 24.355 17.1782C24.3287 16.7299 24.355 14.4092 24.355 13.5916V11.6665C24.355 11.561 24.3814 11.4819 24.5396 11.4819C24.9616 11.4819 27.0977 11.5346 27.7043 11.5874C28.7064 11.6665 28.8646 12.0357 28.9701 12.3785C29.0228 12.5895 29.0492 12.8532 29.0492 13.0115C29.0492 13.1961 29.0756 13.3543 29.2074 13.3543C29.3129 13.3543 29.3657 13.2752 29.3921 13.0642C29.4184 12.7214 29.4184 12.1939 29.4975 11.4555C29.5767 10.6907 29.6821 10.1897 29.6821 10.0578C29.6821 9.92595 29.6294 9.89958 29.5767 9.89958C29.4712 9.89958 29.3921 9.95232 29.2866 10.1106C29.0756 10.4006 28.68 10.4798 28.0735 10.5061C27.5197 10.5589 24.8297 10.5852 24.5133 10.5852C24.3814 10.5852 24.355 10.4798 24.355 10.3215V4.33511C24.355 4.17688 24.4078 4.12414 24.4869 4.12414C24.5396 4.12414 27.1504 4.15051 27.4933 4.17688C28.8119 4.256 29.0492 4.4406 29.2074 4.96804C29.2866 5.15264 29.3657 5.41636 29.3921 5.81194C29.3921 5.99654 29.4448 6.10203 29.5767 6.10203C29.7085 6.10203 29.7613 5.9438 29.7613 5.70645C29.7876 5.20539 29.814 4.78344 29.8404 4.33511C29.8931 3.67582 30.0513 3.30661 30.0513 3.14838C30.0513 3.01652 29.9986 2.96378 29.9459 2.96378C29.8404 2.96378 29.814 2.99015 29.6558 3.04289C29.4448 3.12201 29.1547 3.14838 28.6273 3.17475C28.0998 3.20113 23.4056 3.20113 23.2738 3.20113C21.797 3.17475 21.0849 3.12201 20.5575 3.12201C20.2938 3.12201 20.1619 3.17475 20.1619 3.33298C20.1619 3.4121 20.3201 3.49122 20.5047 3.49122C20.7157 3.49122 20.9794 3.51759 21.1377 3.54396C21.9024 3.70219 22.087 4.0714 22.1398 4.80981C22.1925 5.52185 22.1925 6.15477 22.1925 9.60949V13.5653ZM41.6284 4.15051C42.3932 4.15051 43.2107 4.17688 44.2128 4.17688C46.8764 4.20326 47.2192 4.46697 47.3247 5.52185C47.3511 5.78557 47.3511 5.81194 47.3511 5.89105C47.3511 6.10203 47.4038 6.20752 47.5357 6.20752C47.6148 6.20752 47.7203 6.1284 47.7203 5.89105C47.7203 5.68008 47.773 3.93954 47.773 3.20113C47.773 3.09564 47.7203 2.96378 47.6148 2.96378C47.5357 2.96378 47.4566 2.99015 47.1137 3.06927C46.7445 3.14838 45.9534 3.20113 45.215 3.20113H36.565C36.5386 3.20113 35.8002 3.17475 34.8772 3.06927C34.4025 3.01652 33.9014 2.77917 33.7168 2.77917C33.6377 2.77917 33.5586 2.88466 33.4795 3.20113C33.3213 3.91317 32.9257 5.65371 32.952 5.81194C32.952 5.9438 32.9784 6.04929 33.0839 6.04929C33.1894 6.04929 33.2421 6.02291 33.3213 5.83831C33.374 5.70645 33.4795 5.38999 33.7168 5.02078C34.086 4.46697 34.4552 4.20326 36.143 4.17688C37.1979 4.15051 38.5956 4.15051 39.4659 4.15051V13.5653C39.4659 15.5432 39.4659 17.4419 39.3604 18.3913C39.2549 19.288 39.1758 19.6044 38.6747 19.6835C38.4638 19.7099 38.3055 19.7099 38.0946 19.7099C37.8836 19.7099 37.8045 19.8154 37.8045 19.8945C37.8045 20.0264 37.91 20.0791 38.2 20.0791C38.8857 20.0791 40.4417 20 40.5471 20C40.6526 20 42.2086 20.0791 43.5535 20.0791C43.8173 20.0791 43.8964 20 43.8964 19.8681C43.8964 19.789 43.7909 19.7099 43.5799 19.7099C43.3689 19.7099 42.8679 19.6835 42.5514 19.6044C41.8921 19.4462 41.8394 19.077 41.7602 18.4441C41.6548 17.4683 41.6284 15.5959 41.6284 13.5653V4.15051ZM54.8254 10.1897C54.7463 10.1897 54.6672 10.1897 54.6672 10.0578V9.58312C54.6672 6.10203 54.6672 5.52185 54.6936 4.80981C54.7463 4.0714 54.9046 3.62307 55.5639 3.51759C55.8539 3.46484 55.9331 3.46484 56.0913 3.46484C56.2495 3.46484 56.355 3.4121 56.355 3.30661C56.355 3.17475 56.2232 3.12201 55.9594 3.12201C55.221 3.12201 53.6915 3.20113 53.586 3.20113C53.2431 3.20113 51.9773 3.12201 50.8433 3.12201C50.5796 3.12201 50.4477 3.14838 50.4477 3.30661C50.4477 3.38573 50.5532 3.46484 50.7378 3.46484C50.9488 3.46484 51.2125 3.49122 51.4498 3.51759C52.2146 3.5967 52.3992 4.09777 52.452 4.78344C52.5047 5.49548 52.5047 6.18114 52.5047 9.66223V13.5653C52.5047 15.7278 52.5311 17.4947 52.3729 18.4441C52.2937 19.0242 52.1883 19.5253 51.7136 19.6308C51.5026 19.6835 51.2916 19.7099 51.0806 19.7099C50.8433 19.7099 50.7906 19.8154 50.7906 19.8945C50.7906 20.0264 50.9488 20.0791 51.2125 20.0791C51.8982 20.0791 53.5069 20 53.586 20C53.7178 20 55.2738 20.0791 56.6187 20.0791C56.8561 20.0791 56.9616 20 56.9616 19.8945C56.9616 19.789 56.8297 19.7099 56.6451 19.7099C56.4341 19.7099 56.0386 19.6835 55.6957 19.6308C55.01 19.5517 54.8782 19.0242 54.7991 18.4441C54.6672 17.4947 54.6672 15.7805 54.6672 13.6444V11.2973C54.6672 11.1654 54.72 11.1391 54.7991 11.1391H64.3721C64.4512 11.1391 64.5303 11.1918 64.5303 11.2973V13.6444C64.5303 15.7805 64.5303 17.4419 64.3984 18.3913C64.3193 18.9979 64.1875 19.5781 63.7391 19.6572C63.5282 19.7099 63.3436 19.7099 63.1326 19.7099C62.9216 19.7099 62.8425 19.789 62.8425 19.8681C62.8425 20.0264 62.9744 20.0791 63.2381 20.0791C63.9501 20.0791 65.4797 20 65.5852 20C65.717 20 67.2466 20.0791 68.5652 20.0791C68.8289 20.0791 68.9608 20.0264 68.9608 19.8945C68.9608 19.789 68.8289 19.7099 68.6179 19.7099C68.3806 19.7099 68.0377 19.6835 67.6949 19.6308C67.0092 19.5517 66.8774 19.0242 66.7983 18.3913C66.6928 17.4419 66.6928 15.7278 66.6928 13.5653V9.60949C66.6928 6.1284 66.6928 5.52185 66.7192 4.80981C66.7719 4.0714 66.8774 3.64945 67.5894 3.54396C67.7477 3.51759 67.9586 3.49122 68.1169 3.49122C68.3278 3.49122 68.407 3.38573 68.407 3.30661C68.407 3.14838 68.2487 3.12201 67.985 3.12201C67.1938 3.12201 65.717 3.20113 65.6115 3.20113C65.506 3.20113 63.9501 3.12201 62.8425 3.12201C62.6051 3.12201 62.4733 3.14838 62.4733 3.30661C62.4733 3.4121 62.6051 3.49122 62.7897 3.49122C63.0007 3.49122 63.2644 3.51759 63.449 3.54396C64.3193 3.70219 64.4248 4.0714 64.4775 4.78344C64.5303 5.49548 64.5303 6.10203 64.5303 9.58312V10.0578C64.5303 10.1897 64.4512 10.1897 64.3721 10.1897H54.8254ZM86.2053 7.78983C86.2053 3.67582 86.2053 2.93741 86.258 2.09351C86.3108 1.17049 86.5217 0.722171 87.2865 0.59031C87.603 0.537567 87.9722 0.511196 88.1568 0.511196C88.2623 0.511196 88.3678 0.458451 88.3678 0.352964C88.3678 0.194733 88.2359 0.14199 87.9458 0.14199C87.1547 0.14199 85.2295 0.221104 85.0977 0.221104C84.9658 0.221104 83.3044 0.14199 82.1176 0.14199C81.8276 0.14199 81.6957 0.194733 81.6957 0.352964C81.6957 0.458451 81.8012 0.511196 81.9067 0.511196C82.144 0.511196 82.5923 0.537567 82.8033 0.59031C83.6736 0.774914 83.8846 1.19686 83.9373 2.09351C83.99 2.93741 83.99 3.67582 83.99 7.78983V12.4313C83.99 14.963 83.99 17.0464 83.8582 18.154C83.7527 18.9188 83.6208 19.4989 83.0934 19.6044C82.8561 19.6572 82.5396 19.7099 82.3022 19.7099C82.144 19.7099 82.0913 19.789 82.0913 19.8681C82.0913 20.0264 82.2231 20.0791 82.5132 20.0791C83.489 20.0791 84.2801 20 85.0977 20C87.6557 20 89.8973 20.1582 92.1653 20.1582C93.563 20.1582 93.6421 20.0527 93.8267 19.4462C94.0377 18.6814 94.2223 17.0991 94.2223 16.809C94.2223 16.5189 94.196 16.4134 94.0641 16.4134C93.9059 16.4134 93.8531 16.5453 93.8267 16.7563C93.7476 17.2573 93.4839 17.9166 93.1411 18.3386C92.5082 19.1034 91.3478 19.1297 89.9501 19.1297C87.8931 19.1297 87.2074 18.9451 86.7855 18.5232C86.3108 18.0485 86.2053 16.3607 86.2053 12.484V7.78983ZM99.6024 9.60949C99.6024 6.1284 99.6024 5.52185 99.6288 4.80981C99.6815 4.0714 99.787 3.62307 100.42 3.54396C100.631 3.51759 100.842 3.49122 101 3.49122C101.132 3.49122 101.317 3.43847 101.317 3.30661C101.317 3.17475 101.237 3.12201 100.947 3.12201C100.235 3.12201 98.6794 3.20113 98.4684 3.20113C98.2838 3.20113 96.8597 3.12201 95.7257 3.12201C95.4356 3.12201 95.3301 3.17475 95.3301 3.33298C95.3301 3.4121 95.4356 3.49122 95.6202 3.49122C95.8312 3.49122 96.1477 3.51759 96.3059 3.54396C97.1234 3.64945 97.2553 4.09777 97.2817 4.80981C97.3608 5.52185 97.3608 6.1284 97.3608 9.60949V12.8796C97.3608 16.1497 98.1783 17.732 99.3123 18.7869C101.026 20.3692 103.505 20.3692 104.244 20.3692C105.668 20.3692 107.356 20.2373 109.07 18.7869C110.942 17.1782 111.206 14.3301 111.206 11.9566V9.60949C111.206 6.15477 111.206 5.54822 111.232 4.83618C111.285 4.0714 111.391 3.5967 112.129 3.51759C112.393 3.49122 112.445 3.49122 112.604 3.49122C112.762 3.49122 112.867 3.4121 112.867 3.30661C112.867 3.17475 112.762 3.12201 112.498 3.12201C111.76 3.12201 110.626 3.20113 110.494 3.20113C110.388 3.20113 109.07 3.12201 107.936 3.12201C107.699 3.12201 107.567 3.17475 107.567 3.33298C107.567 3.4121 107.672 3.49122 107.83 3.49122C108.068 3.49122 108.384 3.51759 108.569 3.54396C109.413 3.67582 109.492 4.0714 109.545 4.83618C109.597 5.54822 109.597 6.15477 109.597 9.60949V12.4049C109.597 14.6993 109.36 16.7035 108.305 17.9166C107.303 19.077 106.063 19.4462 104.692 19.4462C103.611 19.4462 102.345 19.2352 101.211 18.2331C100.209 17.3364 99.6024 15.9651 99.6024 12.7477V9.60949ZM125.831 20.3692C127.308 20.3692 129.075 20.2373 129.998 19.8418C130.367 19.6835 130.446 19.6044 130.604 19.1825C130.789 18.6023 131.132 16.4662 131.132 16.2552C131.132 16.0706 131.132 15.886 131 15.886C130.841 15.886 130.762 16.0178 130.71 16.2816C130.578 17.02 130.314 17.6793 129.839 18.1803C128.916 19.077 127.598 19.2616 125.804 19.2616C121.163 19.2616 117.603 15.4113 117.603 11.0336C117.603 8.71284 117.998 6.81407 119.713 5.25813C120.504 4.54609 121.849 3.72856 124.776 3.72856C126.807 3.72856 128.653 4.38786 129.444 5.07353C130.103 5.57459 130.472 6.6031 130.472 7.36788C130.472 7.71071 130.499 7.86894 130.683 7.86894C130.815 7.86894 130.868 7.73708 130.894 7.36788C130.921 7.05142 130.921 5.68008 130.947 4.94167C131 4.09777 131.079 3.86042 131.079 3.64945C131.079 3.51759 131.052 3.38573 130.841 3.38573C130.209 3.35936 129.365 3.2275 128.521 3.09564C127.229 2.91104 126.253 2.80555 125.04 2.80555C121.506 2.80555 119.37 3.78131 117.946 5.15264C115.862 7.1569 115.282 9.76772 115.282 11.2445C115.282 13.4334 115.862 16.0178 118.104 17.9694C119.976 19.5781 122.35 20.3692 125.831 20.3692ZM143.71 13.6444C143.815 13.6444 143.868 13.6971 143.921 13.7762L146.004 19.077C146.162 19.4726 146.004 19.6044 145.899 19.6572C145.793 19.6835 145.714 19.7627 145.714 19.8418C145.714 19.9736 145.872 20 146.373 20.0264C148.14 20.0791 150.118 20.0791 150.382 20.0791C150.672 20.0791 150.777 20.0264 150.777 19.8945C150.777 19.7627 150.646 19.7099 150.461 19.7099C150.276 19.7099 149.907 19.7099 149.564 19.5781C149.195 19.4462 148.43 19.1034 147.56 17.02C146.162 13.7235 142.576 4.51972 142.207 3.64945C141.916 2.91104 141.811 2.80555 141.679 2.80555C141.495 2.80555 141.415 2.93741 141.125 3.70219L135.851 17.6002C135.403 18.7078 134.954 19.5781 133.82 19.6835C133.662 19.7099 133.425 19.7099 133.293 19.7099C133.082 19.7099 132.976 19.789 132.976 19.8945C132.976 20.0264 133.108 20.0791 133.398 20.0791C134.506 20.0791 135.666 20 135.93 20C136.22 20 137.433 20.0791 138.013 20.0791C138.198 20.0791 138.409 20.0264 138.409 19.8945C138.409 19.789 138.33 19.7099 138.093 19.7099C138.013 19.7099 137.987 19.7099 137.908 19.7099C137.328 19.7099 137.038 19.4989 137.038 19.0242C137.038 18.6023 137.222 17.8903 137.486 17.1518L138.646 13.8554C138.699 13.7235 138.778 13.6444 138.91 13.6444H143.71ZM139.174 12.7214C139.121 12.7214 139.068 12.6686 139.121 12.5631L141.099 6.73495C141.231 6.36575 141.257 6.36575 141.389 6.73495L143.472 12.5631C143.499 12.6423 143.499 12.7214 143.393 12.7214H139.174ZM156.052 20.3692C157.318 20.3692 158.583 20.1055 159.612 19.4462C161.221 18.3386 161.616 16.6508 161.616 15.7014C161.616 13.829 160.904 12.4313 158.162 10.3215L157.555 9.84683C155.366 8.18541 154.733 7.42062 154.733 6.18114C154.733 4.59883 155.92 3.64945 157.502 3.64945C159.717 3.64945 160.324 4.65158 160.456 4.88892C160.693 5.33725 160.746 5.89105 160.772 6.1284C160.799 6.313 160.825 6.41849 160.957 6.41849C161.089 6.41849 161.142 6.26026 161.142 5.86468C161.142 4.33511 161.247 3.4121 161.247 3.30661C161.247 3.20113 161.194 3.14838 161.01 3.14838C160.825 3.14838 160.614 3.12201 160.113 3.01652C159.533 2.88466 158.9 2.80555 157.977 2.80555C155.023 2.80555 153.098 4.4406 153.098 6.86681C153.098 8.42275 153.626 9.82046 156.157 11.8511L157.212 12.6686C159.137 14.2246 159.823 15.1476 159.823 16.6508C159.823 17.9694 158.768 19.4726 156.579 19.4726C155.05 19.4726 153.494 18.8133 153.151 17.0991C153.072 16.7826 153.072 16.4662 153.072 16.3079C153.072 16.1233 153.019 16.0442 152.887 16.0442C152.755 16.0442 152.703 16.1761 152.676 16.4134C152.65 16.7826 152.571 17.6793 152.571 18.8924C152.571 19.5253 152.571 19.6308 152.914 19.789C153.916 20.2373 154.944 20.3692 156.052 20.3692Z" fill="white"/>
<path d="M4.74906 33.7263V36.02H3.97645V30.161H6.13735C6.77851 30.161 7.28017 30.3247 7.64234 30.652C8.00718 30.9793 8.1896 31.4125 8.1896 31.9517C8.1896 32.5205 8.0112 32.9591 7.65441 33.2676C7.30029 33.5734 6.79192 33.7263 6.1293 33.7263H4.74906ZM4.74906 33.0946H6.13735C6.55048 33.0946 6.86704 32.998 7.08702 32.8048C7.307 32.609 7.41699 32.3273 7.41699 31.9598C7.41699 31.611 7.307 31.332 7.08702 31.1228C6.86704 30.9135 6.56524 30.8049 6.18161 30.7968H4.74906V33.0946ZM12.5605 33.6499H11.1843V36.02H10.4076V30.161H12.3472C13.0072 30.161 13.5142 30.3113 13.8683 30.6117C14.2251 30.9122 14.4035 31.3495 14.4035 31.9236C14.4035 32.2884 14.3042 32.6063 14.1057 32.8773C13.9099 33.1482 13.6363 33.3507 13.2848 33.4849L14.661 35.9717V36.02H13.8321L12.5605 33.6499ZM11.1843 33.0181H12.3714C12.755 33.0181 13.0595 32.9188 13.2848 32.7203C13.5129 32.5218 13.6269 32.2562 13.6269 31.9236C13.6269 31.5614 13.5182 31.2837 13.3009 31.0906C13.0863 30.8974 12.7751 30.7995 12.3673 30.7968H11.1843V33.0181ZM21.2331 33.2797C21.2331 33.8538 21.1365 34.3554 20.9434 34.7846C20.7502 35.2112 20.4766 35.5371 20.1225 35.7625C19.7683 35.9878 19.3552 36.1005 18.8831 36.1005C18.4216 36.1005 18.0125 35.9878 17.6557 35.7625C17.2989 35.5345 17.0213 35.2112 16.8227 34.7927C16.6269 34.3715 16.5263 33.8846 16.5209 33.332V32.9094C16.5209 32.3461 16.6189 31.8484 16.8147 31.4165C17.0105 30.9846 17.2869 30.6547 17.6437 30.4266C18.0031 30.1959 18.4136 30.0806 18.875 30.0806C19.3445 30.0806 19.7576 30.1946 20.1144 30.4226C20.4739 30.6479 20.7502 30.9766 20.9434 31.4085C21.1365 31.8377 21.2331 32.338 21.2331 32.9094V33.2797ZM20.4645 32.9014C20.4645 32.2066 20.325 31.6741 20.046 31.3039C19.767 30.931 19.3767 30.7445 18.875 30.7445C18.3868 30.7445 18.0018 30.931 17.7201 31.3039C17.4411 31.6741 17.2976 32.1891 17.2895 32.8491V33.2797C17.2895 33.953 17.4304 34.4828 17.7121 34.8691C17.9964 35.2528 18.3868 35.4446 18.8831 35.4446C19.382 35.4446 19.7683 35.2635 20.042 34.9013C20.3156 34.5365 20.4564 34.0147 20.4645 33.336V32.9014ZM26.8595 33.4326H24.4008V36.02H23.6282V30.161H27.2579V30.7968H24.4008V32.8008H26.8595V33.4326ZM32.7313 33.3118H30.1922V35.3882H33.1418V36.02H29.4196V30.161H33.1015V30.7968H30.1922V32.6801H32.7313V33.3118ZM37.066 33.4084C36.4034 33.218 35.9205 32.9846 35.6174 32.7082C35.3169 32.4292 35.1667 32.0859 35.1667 31.6781C35.1667 31.2167 35.3504 30.8357 35.718 30.5353C36.0882 30.2321 36.5684 30.0806 37.1586 30.0806C37.561 30.0806 37.9191 30.1584 38.233 30.314C38.5495 30.4695 38.7937 30.6842 38.9654 30.9578C39.1397 31.2314 39.2269 31.5305 39.2269 31.8552H38.4503C38.4503 31.501 38.3376 31.2234 38.1123 31.0222C37.8869 30.8183 37.569 30.7164 37.1586 30.7164C36.7776 30.7164 36.4799 30.8009 36.2652 30.9699C36.0533 31.1362 35.9473 31.3682 35.9473 31.666C35.9473 31.9048 36.0479 32.1073 36.2491 32.2737C36.453 32.4373 36.7977 32.5875 37.2833 32.7243C37.7716 32.8612 38.1525 33.0127 38.4261 33.1791C38.7025 33.3427 38.9063 33.5345 39.0378 33.7545C39.1719 33.9745 39.239 34.2334 39.239 34.5311C39.239 35.006 39.0539 35.3869 38.6837 35.674C38.3135 35.9583 37.8185 36.1005 37.1988 36.1005C36.7964 36.1005 36.4208 36.024 36.0721 35.8711C35.7233 35.7155 35.4537 35.5036 35.2633 35.2353C35.0755 34.9671 34.9816 34.6626 34.9816 34.3219H35.7582C35.7582 34.676 35.8883 34.9563 36.1485 35.1629C36.4114 35.3668 36.7615 35.4687 37.1988 35.4687C37.6066 35.4687 37.9191 35.3856 38.1364 35.2192C38.3537 35.0529 38.4624 34.8262 38.4624 34.5392C38.4624 34.2521 38.3618 34.0308 38.1606 33.8752C37.9594 33.7169 37.5945 33.5613 37.066 33.4084ZM43.1954 33.4084C42.5328 33.218 42.0499 32.9846 41.7468 32.7082C41.4463 32.4292 41.2961 32.0859 41.2961 31.6781C41.2961 31.2167 41.4798 30.8357 41.8474 30.5353C42.2176 30.2321 42.6978 30.0806 43.288 30.0806C43.6904 30.0806 44.0485 30.1584 44.3624 30.314C44.6789 30.4695 44.9231 30.6842 45.0948 30.9578C45.2691 31.2314 45.3563 31.5305 45.3563 31.8552H44.5797C44.5797 31.501 44.467 31.2234 44.2417 31.0222C44.0163 30.8183 43.6984 30.7164 43.288 30.7164C42.907 30.7164 42.6092 30.8009 42.3946 30.9699C42.1827 31.1362 42.0767 31.3682 42.0767 31.666C42.0767 31.9048 42.1773 32.1073 42.3785 32.2737C42.5824 32.4373 42.9271 32.5875 43.4127 32.7243C43.901 32.8612 44.2819 33.0127 44.5555 33.1791C44.8319 33.3427 45.0357 33.5345 45.1672 33.7545C45.3013 33.9745 45.3684 34.2334 45.3684 34.5311C45.3684 35.006 45.1833 35.3869 44.8131 35.674C44.4429 35.9583 43.9479 36.1005 43.3282 36.1005C42.9258 36.1005 42.5502 36.024 42.2015 35.8711C41.8527 35.7155 41.5831 35.5036 41.3927 35.2353C41.2049 34.9671 41.111 34.6626 41.111 34.3219H41.8876C41.8876 34.676 42.0177 34.9563 42.2779 35.1629C42.5408 35.3668 42.8909 35.4687 43.3282 35.4687C43.736 35.4687 44.0485 35.3856 44.2658 35.2192C44.4831 35.0529 44.5918 34.8262 44.5918 34.5392C44.5918 34.2521 44.4912 34.0308 44.29 33.8752C44.0887 33.7169 43.7239 33.5613 43.1954 33.4084ZM48.4275 36.02H47.6548V30.161H48.4275V36.02ZM55.587 33.2797C55.587 33.8538 55.4904 34.3554 55.2973 34.7846C55.1041 35.2112 54.8305 35.5371 54.4764 35.7625C54.1223 35.9878 53.7091 36.1005 53.237 36.1005C52.7755 36.1005 52.3664 35.9878 52.0096 35.7625C51.6528 35.5345 51.3752 35.2112 51.1767 34.7927C50.9808 34.3715 50.8802 33.8846 50.8749 33.332V32.9094C50.8749 32.3461 50.9728 31.8484 51.1686 31.4165C51.3645 30.9846 51.6408 30.6547 51.9976 30.4266C52.3571 30.1959 52.7675 30.0806 53.2289 30.0806C53.6984 30.0806 54.1115 30.1946 54.4683 30.4226C54.8278 30.6479 55.1041 30.9766 55.2973 31.4085C55.4904 31.8377 55.587 32.338 55.587 32.9094V33.2797ZM54.8184 32.9014C54.8184 32.2066 54.6789 31.6741 54.3999 31.3039C54.1209 30.931 53.7306 30.7445 53.2289 30.7445C52.7407 30.7445 52.3557 30.931 52.074 31.3039C51.795 31.6741 51.6515 32.1891 51.6435 32.8491V33.2797C51.6435 33.953 51.7843 34.4828 52.066 34.8691C52.3503 35.2528 52.7407 35.4446 53.237 35.4446C53.7359 35.4446 54.1223 35.2635 54.3959 34.9013C54.6695 34.5365 54.8104 34.0147 54.8184 33.336V32.9014ZM62.485 36.02H61.7083L58.7587 31.5051V36.02H57.9821V30.161H58.7587L61.7164 34.6961V30.161H62.485V36.02ZM68.4011 34.4909H65.9465L65.3952 36.02H64.5984L66.8358 30.161H67.5118L69.7532 36.02H68.9605L68.4011 34.4909ZM66.1798 33.8551H68.1717L67.1738 31.1147L66.1798 33.8551ZM72.5547 35.3882H75.3313V36.02H71.7781V30.161H72.5547V35.3882ZM85.0388 34.1609C84.9664 34.7806 84.737 35.2595 84.3507 35.5975C83.9671 35.9328 83.4561 36.1005 82.8176 36.1005C82.1255 36.1005 81.5701 35.8524 81.1516 35.3561C80.7358 34.8598 80.5279 34.1958 80.5279 33.3642V32.8008C80.5279 32.2562 80.6245 31.7774 80.8176 31.3642C81.0135 30.9511 81.2898 30.6345 81.6466 30.4146C82.0034 30.1919 82.4165 30.0806 82.886 30.0806C83.5084 30.0806 84.0074 30.2549 84.3829 30.6037C84.7585 30.9497 84.9771 31.4299 85.0388 32.0443H84.2622C84.1951 31.5775 84.0489 31.2395 83.8236 31.0302C83.6009 30.821 83.2884 30.7164 82.886 30.7164C82.3924 30.7164 82.0047 30.8988 81.7231 31.2636C81.4441 31.6285 81.3046 32.1476 81.3046 32.8209V33.3883C81.3046 34.0241 81.4373 34.5298 81.7029 34.9054C81.9685 35.2809 82.3401 35.4687 82.8176 35.4687C83.2468 35.4687 83.5754 35.3722 83.8035 35.179C84.0342 34.9832 84.1871 34.6438 84.2622 34.1609H85.0388ZM91.8403 33.2797C91.8403 33.8538 91.7437 34.3554 91.5505 34.7846C91.3574 35.2112 91.0837 35.5371 90.7296 35.7625C90.3755 35.9878 89.9624 36.1005 89.4902 36.1005C89.0288 36.1005 88.6197 35.9878 88.2629 35.7625C87.9061 35.5345 87.6284 35.2112 87.4299 34.7927C87.2341 34.3715 87.1335 33.8846 87.1281 33.332V32.9094C87.1281 32.3461 87.226 31.8484 87.4219 31.4165C87.6177 30.9846 87.894 30.6547 88.2508 30.4266C88.6103 30.1959 89.0208 30.0806 89.4822 30.0806C89.9517 30.0806 90.3648 30.1946 90.7216 30.4226C91.0811 30.6479 91.3574 30.9766 91.5505 31.4085C91.7437 31.8377 91.8403 32.338 91.8403 32.9094V33.2797ZM91.0717 32.9014C91.0717 32.2066 90.9322 31.6741 90.6532 31.3039C90.3742 30.931 89.9838 30.7445 89.4822 30.7445C88.9939 30.7445 88.609 30.931 88.3273 31.3039C88.0483 31.6741 87.9048 32.1891 87.8967 32.8491V33.2797C87.8967 33.953 88.0376 34.4828 88.3192 34.8691C88.6036 35.2528 88.9939 35.4446 89.4902 35.4446C89.9892 35.4446 90.3755 35.2635 90.6491 34.9013C90.9228 34.5365 91.0636 34.0147 91.0717 33.336V32.9014ZM95.9617 33.4084C95.299 33.218 94.8162 32.9846 94.513 32.7082C94.2126 32.4292 94.0623 32.0859 94.0623 31.6781C94.0623 31.2167 94.2461 30.8357 94.6136 30.5353C94.9838 30.2321 95.464 30.0806 96.0542 30.0806C96.4566 30.0806 96.8148 30.1584 97.1286 30.314C97.4452 30.4695 97.6893 30.6842 97.861 30.9578C98.0354 31.2314 98.1226 31.5305 98.1226 31.8552H97.3459C97.3459 31.501 97.2333 31.2234 97.0079 31.0222C96.7826 30.8183 96.4647 30.7164 96.0542 30.7164C95.6733 30.7164 95.3755 30.8009 95.1609 30.9699C94.949 31.1362 94.843 31.3682 94.843 31.666C94.843 31.9048 94.9436 32.1073 95.1448 32.2737C95.3487 32.4373 95.6934 32.5875 96.179 32.7243C96.6672 32.8612 97.0482 33.0127 97.3218 33.1791C97.5981 33.3427 97.802 33.5345 97.9334 33.7545C98.0676 33.9745 98.1346 34.2334 98.1346 34.5311C98.1346 35.006 97.9495 35.3869 97.5793 35.674C97.2091 35.9583 96.7142 36.1005 96.0945 36.1005C95.6921 36.1005 95.3165 36.024 94.9677 35.8711C94.619 35.7155 94.3494 35.5036 94.1589 35.2353C93.9711 34.9671 93.8772 34.6626 93.8772 34.3219H94.6539C94.6539 34.676 94.784 34.9563 95.0442 35.1629C95.3071 35.3668 95.6572 35.4687 96.0945 35.4687C96.5022 35.4687 96.8148 35.3856 97.0321 35.2192C97.2494 35.0529 97.358 34.8262 97.358 34.5392C97.358 34.2521 97.2574 34.0308 97.0562 33.8752C96.855 33.7169 96.4902 33.5613 95.9617 33.4084ZM101.363 30.161L103.278 34.9416L105.194 30.161H106.196V36.02H105.423V33.7384L105.495 31.2757L103.572 36.02H102.98L101.061 31.2878L101.137 33.7384V36.02H100.365V30.161H101.363ZM112.108 33.3118H109.569V35.3882H112.518V36.02H108.796V30.161H112.478V30.7968H109.569V32.6801H112.108V33.3118ZM118.845 30.7968H116.961V36.02H116.193V30.7968H114.314V30.161H118.845V30.7968ZM125.344 33.2797C125.344 33.8538 125.248 34.3554 125.055 34.7846C124.861 35.2112 124.588 35.5371 124.234 35.7625C123.88 35.9878 123.466 36.1005 122.994 36.1005C122.533 36.1005 122.124 35.9878 121.767 35.7625C121.41 35.5345 121.132 35.2112 120.934 34.7927C120.738 34.3715 120.638 33.8846 120.632 33.332V32.9094C120.632 32.3461 120.73 31.8484 120.926 31.4165C121.122 30.9846 121.398 30.6547 121.755 30.4266C122.114 30.1959 122.525 30.0806 122.986 30.0806C123.456 30.0806 123.869 30.1946 124.226 30.4226C124.585 30.6479 124.861 30.9766 125.055 31.4085C125.248 31.8377 125.344 32.338 125.344 32.9094V33.2797ZM124.576 32.9014C124.576 32.2066 124.436 31.6741 124.157 31.3039C123.878 30.931 123.488 30.7445 122.986 30.7445C122.498 30.7445 122.113 30.931 121.831 31.3039C121.552 31.6741 121.409 32.1891 121.401 32.8491V33.2797C121.401 33.953 121.542 34.4828 121.823 34.8691C122.108 35.2528 122.498 35.4446 122.994 35.4446C123.493 35.4446 123.88 35.2635 124.153 34.9013C124.427 34.5365 124.568 34.0147 124.576 33.336V32.9014ZM128.516 35.3882H131.293V36.02H127.739V30.161H128.516V35.3882ZM137.651 33.2797C137.651 33.8538 137.555 34.3554 137.362 34.7846C137.169 35.2112 136.895 35.5371 136.541 35.7625C136.187 35.9878 135.774 36.1005 135.301 36.1005C134.84 36.1005 134.431 35.9878 134.074 35.7625C133.717 35.5345 133.44 35.2112 133.241 34.7927C133.045 34.3715 132.945 33.8846 132.939 33.332V32.9094C132.939 32.3461 133.037 31.8484 133.233 31.4165C133.429 30.9846 133.705 30.6547 134.062 30.4266C134.421 30.1959 134.832 30.0806 135.293 30.0806C135.763 30.0806 136.176 30.1946 136.533 30.4226C136.892 30.6479 137.169 30.9766 137.362 31.4085C137.555 31.8377 137.651 32.338 137.651 32.9094V33.2797ZM136.883 32.9014C136.883 32.2066 136.743 31.6741 136.464 31.3039C136.185 30.931 135.795 30.7445 135.293 30.7445C134.805 30.7445 134.42 30.931 134.138 31.3039C133.859 31.6741 133.716 32.1891 133.708 32.8491V33.2797C133.708 33.953 133.849 34.4828 134.13 34.8691C134.415 35.2528 134.805 35.4446 135.301 35.4446C135.8 35.4446 136.187 35.2635 136.46 34.9013C136.734 34.5365 136.875 34.0147 136.883 33.336V32.9014ZM144.372 35.2514C144.174 35.5358 143.896 35.7491 143.539 35.8913C143.185 36.0308 142.772 36.1005 142.3 36.1005C141.822 36.1005 141.399 35.9892 141.028 35.7665C140.658 35.5412 140.371 35.2219 140.167 34.8088C139.966 34.3957 139.863 33.9168 139.857 33.3722V32.8612C139.857 31.9786 140.063 31.2945 140.473 30.8089C140.886 30.3233 141.466 30.0806 142.211 30.0806C142.823 30.0806 143.315 30.2375 143.688 30.5514C144.061 30.8626 144.289 31.3052 144.372 31.8793H143.6C143.455 31.104 142.993 30.7164 142.215 30.7164C141.698 30.7164 141.305 30.8988 141.036 31.2636C140.771 31.6258 140.637 32.1516 140.634 32.841V33.3199C140.634 33.9772 140.784 34.5003 141.085 34.8893C141.385 35.2756 141.792 35.4687 142.304 35.4687C142.594 35.4687 142.847 35.4365 143.065 35.3722C143.282 35.3078 143.462 35.1991 143.604 35.0462V33.7303H142.248V33.1026H144.372V35.2514ZM147.729 36.02H146.957V30.161H147.729V36.02ZM152.108 33.4084C151.445 33.218 150.963 32.9846 150.659 32.7082C150.359 32.4292 150.209 32.0859 150.209 31.6781C150.209 31.2167 150.393 30.8357 150.76 30.5353C151.13 30.2321 151.61 30.0806 152.201 30.0806C152.603 30.0806 152.961 30.1584 153.275 30.314C153.592 30.4695 153.836 30.6842 154.007 30.9578C154.182 31.2314 154.269 31.5305 154.269 31.8552H153.492C153.492 31.501 153.38 31.2234 153.154 31.0222C152.929 30.8183 152.611 30.7164 152.201 30.7164C151.82 30.7164 151.522 30.8009 151.307 30.9699C151.095 31.1362 150.989 31.3682 150.989 31.666C150.989 31.9048 151.09 32.1073 151.291 32.2737C151.495 32.4373 151.84 32.5875 152.325 32.7243C152.814 32.8612 153.195 33.0127 153.468 33.1791C153.745 33.3427 153.948 33.5345 154.08 33.7545C154.214 33.9745 154.281 34.2334 154.281 34.5311C154.281 35.006 154.096 35.3869 153.726 35.674C153.356 35.9583 152.861 36.1005 152.241 36.1005C151.838 36.1005 151.463 36.024 151.114 35.8711C150.765 35.7155 150.496 35.5036 150.305 35.2353C150.118 34.9671 150.024 34.6626 150.024 34.3219H150.8C150.8 34.676 150.93 34.9563 151.191 35.1629C151.454 35.3668 151.804 35.4687 152.241 35.4687C152.649 35.4687 152.961 35.3856 153.178 35.2192C153.396 35.0529 153.504 34.8262 153.504 34.5392C153.504 34.2521 153.404 34.0308 153.203 33.8752C153.001 33.7169 152.637 33.5613 152.108 33.4084ZM160.559 30.7968H158.676V36.02H157.908V30.7968H156.028V30.161H160.559V30.7968Z" fill="white"/>
</svg>
