<svg width="204" height="59" viewBox="0 0 204 59" fill="none" xmlns="http://www.w3.org/2000/svg">
<path d="M5.7627 50.2168V53H4.8252V45.8906H7.44727C8.22526 45.8906 8.83398 46.0892 9.27344 46.4863C9.71615 46.8835 9.9375 47.4092 9.9375 48.0635C9.9375 48.7536 9.72103 49.2858 9.28809 49.6602C8.8584 50.0312 8.24154 50.2168 7.4375 50.2168H5.7627ZM5.7627 49.4502H7.44727C7.94857 49.4502 8.33268 49.333 8.59961 49.0986C8.86654 48.861 9 48.5192 9 48.0732C9 47.6501 8.86654 47.3115 8.59961 47.0576C8.33268 46.8037 7.96647 46.6719 7.50098 46.6621H5.7627V49.4502ZM15.2412 50.124H13.5713V53H12.6289V45.8906H14.9824C15.7832 45.8906 16.3984 46.0729 16.8281 46.4375C17.2611 46.8021 17.4775 47.3327 17.4775 48.0293C17.4775 48.472 17.3571 48.8577 17.1162 49.1865C16.8786 49.5153 16.5465 49.7611 16.1201 49.9238L17.79 52.9414V53H16.7842L15.2412 50.124ZM13.5713 49.3574H15.0117C15.4772 49.3574 15.8467 49.237 16.1201 48.9961C16.3968 48.7552 16.5352 48.4329 16.5352 48.0293C16.5352 47.5898 16.4033 47.2529 16.1396 47.0186C15.8792 46.7842 15.5016 46.6654 15.0068 46.6621H13.5713V49.3574ZM25.7646 49.6748C25.7646 50.3714 25.6475 50.9801 25.4131 51.501C25.1787 52.0186 24.8467 52.4141 24.417 52.6875C23.9873 52.9609 23.486 53.0977 22.9131 53.0977C22.3532 53.0977 21.8568 52.9609 21.4238 52.6875C20.9909 52.4108 20.654 52.0186 20.4131 51.5107C20.1755 50.9997 20.0534 50.4089 20.0469 49.7383V49.2256C20.0469 48.542 20.1657 47.9382 20.4033 47.4141C20.641 46.89 20.9762 46.4896 21.4092 46.2129C21.8454 45.9329 22.3434 45.793 22.9033 45.793C23.473 45.793 23.9743 45.9313 24.4072 46.208C24.8434 46.4814 25.1787 46.8802 25.4131 47.4043C25.6475 47.9251 25.7646 48.5322 25.7646 49.2256V49.6748ZM24.832 49.2158C24.832 48.3727 24.6628 47.7266 24.3242 47.2773C23.9857 46.8249 23.512 46.5986 22.9033 46.5986C22.3109 46.5986 21.8438 46.8249 21.502 47.2773C21.1634 47.7266 20.9893 48.3516 20.9795 49.1523V49.6748C20.9795 50.4919 21.1504 51.1348 21.4922 51.6035C21.8372 52.069 22.3109 52.3018 22.9131 52.3018C23.5186 52.3018 23.9873 52.082 24.3193 51.6426C24.6514 51.1999 24.8223 50.5667 24.832 49.7432V49.2158ZM32.5918 49.8604H29.6084V53H28.6709V45.8906H33.0752V46.6621H29.6084V49.0938H32.5918V49.8604ZM39.7168 49.7139H36.6357V52.2334H40.2148V53H35.6982V45.8906H40.166V46.6621H36.6357V48.9473H39.7168V49.7139ZM44.9766 49.8311C44.1725 49.5999 43.5866 49.3167 43.2188 48.9814C42.8542 48.6429 42.6719 48.2262 42.6719 47.7314C42.6719 47.1715 42.8949 46.7093 43.3408 46.3447C43.79 45.9769 44.3727 45.793 45.0889 45.793C45.5771 45.793 46.0117 45.8874 46.3926 46.0762C46.7767 46.265 47.0729 46.5254 47.2812 46.8574C47.4928 47.1895 47.5986 47.5524 47.5986 47.9463H46.6562C46.6562 47.5166 46.5195 47.1797 46.2461 46.9355C45.9727 46.6882 45.5869 46.5645 45.0889 46.5645C44.6266 46.5645 44.2653 46.667 44.0049 46.8721C43.7477 47.0739 43.6191 47.3555 43.6191 47.7168C43.6191 48.0065 43.7412 48.2523 43.9854 48.4541C44.2327 48.6527 44.651 48.835 45.2402 49.001C45.8327 49.167 46.2949 49.3509 46.627 49.5527C46.9622 49.7513 47.2096 49.984 47.3691 50.251C47.5319 50.5179 47.6133 50.832 47.6133 51.1934C47.6133 51.7695 47.3887 52.2318 46.9395 52.5801C46.4902 52.9251 45.8896 53.0977 45.1377 53.0977C44.6494 53.0977 44.1937 53.0049 43.7705 52.8193C43.3473 52.6305 43.0202 52.3734 42.7891 52.0479C42.5612 51.7223 42.4473 51.3529 42.4473 50.9395H43.3896C43.3896 51.3691 43.5475 51.7093 43.8633 51.96C44.1823 52.2074 44.6071 52.3311 45.1377 52.3311C45.6325 52.3311 46.0117 52.2301 46.2754 52.0283C46.5391 51.8265 46.6709 51.5514 46.6709 51.2031C46.6709 50.8548 46.5488 50.5863 46.3047 50.3975C46.0605 50.2054 45.6178 50.0166 44.9766 49.8311ZM52.4141 49.8311C51.61 49.5999 51.0241 49.3167 50.6562 48.9814C50.2917 48.6429 50.1094 48.2262 50.1094 47.7314C50.1094 47.1715 50.3324 46.7093 50.7783 46.3447C51.2275 45.9769 51.8102 45.793 52.5264 45.793C53.0146 45.793 53.4492 45.8874 53.8301 46.0762C54.2142 46.265 54.5104 46.5254 54.7188 46.8574C54.9303 47.1895 55.0361 47.5524 55.0361 47.9463H54.0938C54.0938 47.5166 53.957 47.1797 53.6836 46.9355C53.4102 46.6882 53.0244 46.5645 52.5264 46.5645C52.0641 46.5645 51.7028 46.667 51.4424 46.8721C51.1852 47.0739 51.0566 47.3555 51.0566 47.7168C51.0566 48.0065 51.1787 48.2523 51.4229 48.4541C51.6702 48.6527 52.0885 48.835 52.6777 49.001C53.2702 49.167 53.7324 49.3509 54.0645 49.5527C54.3997 49.7513 54.6471 49.984 54.8066 50.251C54.9694 50.5179 55.0508 50.832 55.0508 51.1934C55.0508 51.7695 54.8262 52.2318 54.377 52.5801C53.9277 52.9251 53.3271 53.0977 52.5752 53.0977C52.0869 53.0977 51.6312 53.0049 51.208 52.8193C50.7848 52.6305 50.4577 52.3734 50.2266 52.0479C49.9987 51.7223 49.8848 51.3529 49.8848 50.9395H50.8271C50.8271 51.3691 50.985 51.7093 51.3008 51.96C51.6198 52.2074 52.0446 52.3311 52.5752 52.3311C53.07 52.3311 53.4492 52.2301 53.7129 52.0283C53.9766 51.8265 54.1084 51.5514 54.1084 51.2031C54.1084 50.8548 53.9863 50.5863 53.7422 50.3975C53.498 50.2054 53.0553 50.0166 52.4141 49.8311ZM58.7627 53H57.8252V45.8906H58.7627V53ZM67.4502 49.6748C67.4502 50.3714 67.333 50.9801 67.0986 51.501C66.8643 52.0186 66.5322 52.4141 66.1025 52.6875C65.6729 52.9609 65.1715 53.0977 64.5986 53.0977C64.0387 53.0977 63.5423 52.9609 63.1094 52.6875C62.6764 52.4108 62.3395 52.0186 62.0986 51.5107C61.861 50.9997 61.7389 50.4089 61.7324 49.7383V49.2256C61.7324 48.542 61.8512 47.9382 62.0889 47.4141C62.3265 46.89 62.6618 46.4896 63.0947 46.2129C63.5309 45.9329 64.029 45.793 64.5889 45.793C65.1585 45.793 65.6598 45.9313 66.0928 46.208C66.529 46.4814 66.8643 46.8802 67.0986 47.4043C67.333 47.9251 67.4502 48.5322 67.4502 49.2256V49.6748ZM66.5176 49.2158C66.5176 48.3727 66.3483 47.7266 66.0098 47.2773C65.6712 46.8249 65.1976 46.5986 64.5889 46.5986C63.9964 46.5986 63.5293 46.8249 63.1875 47.2773C62.849 47.7266 62.6748 48.3516 62.665 49.1523V49.6748C62.665 50.4919 62.8359 51.1348 63.1777 51.6035C63.5228 52.069 63.9964 52.3018 64.5986 52.3018C65.2041 52.3018 65.6729 52.082 66.0049 51.6426C66.3369 51.1999 66.5078 50.5667 66.5176 49.7432V49.2158ZM75.8203 53H74.8779L71.2988 47.5215V53H70.3564V45.8906H71.2988L74.8877 51.3936V45.8906H75.8203V53ZM82.999 51.1445H80.0205L79.3516 53H78.3848L81.0996 45.8906H81.9199L84.6396 53H83.6777L82.999 51.1445ZM80.3037 50.373H82.7207L81.5098 47.0479L80.3037 50.373ZM88.0391 52.2334H91.4082V53H87.0967V45.8906H88.0391V52.2334ZM103.188 50.7441C103.1 51.4961 102.821 52.0771 102.353 52.4873C101.887 52.8942 101.267 53.0977 100.492 53.0977C99.6523 53.0977 98.9785 52.7965 98.4707 52.1943C97.9661 51.5921 97.7139 50.7865 97.7139 49.7773V49.0938C97.7139 48.4329 97.8311 47.8519 98.0654 47.3506C98.3031 46.8493 98.6383 46.4652 99.0713 46.1982C99.5042 45.9281 100.006 45.793 100.575 45.793C101.33 45.793 101.936 46.0046 102.392 46.4277C102.847 46.8477 103.113 47.4303 103.188 48.1758H102.245C102.164 47.6094 101.986 47.1992 101.713 46.9453C101.443 46.6914 101.063 46.5645 100.575 46.5645C99.9762 46.5645 99.5059 46.7858 99.1641 47.2285C98.8255 47.6712 98.6562 48.3011 98.6562 49.1182V49.8066C98.6562 50.5781 98.8174 51.1917 99.1396 51.6475C99.4619 52.1032 99.9128 52.3311 100.492 52.3311C101.013 52.3311 101.412 52.2139 101.688 51.9795C101.968 51.7419 102.154 51.3301 102.245 50.7441H103.188ZM111.44 49.6748C111.44 50.3714 111.323 50.9801 111.089 51.501C110.854 52.0186 110.522 52.4141 110.093 52.6875C109.663 52.9609 109.162 53.0977 108.589 53.0977C108.029 53.0977 107.533 52.9609 107.1 52.6875C106.667 52.4108 106.33 52.0186 106.089 51.5107C105.851 50.9997 105.729 50.4089 105.723 49.7383V49.2256C105.723 48.542 105.841 47.9382 106.079 47.4141C106.317 46.89 106.652 46.4896 107.085 46.2129C107.521 45.9329 108.019 45.793 108.579 45.793C109.149 45.793 109.65 45.9313 110.083 46.208C110.519 46.4814 110.854 46.8802 111.089 47.4043C111.323 47.9251 111.44 48.5322 111.44 49.2256V49.6748ZM110.508 49.2158C110.508 48.3727 110.339 47.7266 110 47.2773C109.661 46.8249 109.188 46.5986 108.579 46.5986C107.987 46.5986 107.52 46.8249 107.178 47.2773C106.839 47.7266 106.665 48.3516 106.655 49.1523V49.6748C106.655 50.4919 106.826 51.1348 107.168 51.6035C107.513 52.069 107.987 52.3018 108.589 52.3018C109.194 52.3018 109.663 52.082 109.995 51.6426C110.327 51.1999 110.498 50.5667 110.508 49.7432V49.2158ZM116.441 49.8311C115.637 49.5999 115.051 49.3167 114.684 48.9814C114.319 48.6429 114.137 48.2262 114.137 47.7314C114.137 47.1715 114.36 46.7093 114.806 46.3447C115.255 45.9769 115.838 45.793 116.554 45.793C117.042 45.793 117.477 45.8874 117.857 46.0762C118.242 46.265 118.538 46.5254 118.746 46.8574C118.958 47.1895 119.063 47.5524 119.063 47.9463H118.121C118.121 47.5166 117.984 47.1797 117.711 46.9355C117.438 46.6882 117.052 46.5645 116.554 46.5645C116.091 46.5645 115.73 46.667 115.47 46.8721C115.213 47.0739 115.084 47.3555 115.084 47.7168C115.084 48.0065 115.206 48.2523 115.45 48.4541C115.698 48.6527 116.116 48.835 116.705 49.001C117.298 49.167 117.76 49.3509 118.092 49.5527C118.427 49.7513 118.674 49.984 118.834 50.251C118.997 50.5179 119.078 50.832 119.078 51.1934C119.078 51.7695 118.854 52.2318 118.404 52.5801C117.955 52.9251 117.354 53.0977 116.603 53.0977C116.114 53.0977 115.659 53.0049 115.235 52.8193C114.812 52.6305 114.485 52.3734 114.254 52.0479C114.026 51.7223 113.912 51.3529 113.912 50.9395H114.854C114.854 51.3691 115.012 51.7093 115.328 51.96C115.647 52.2074 116.072 52.3311 116.603 52.3311C117.097 52.3311 117.477 52.2301 117.74 52.0283C118.004 51.8265 118.136 51.5514 118.136 51.2031C118.136 50.8548 118.014 50.5863 117.77 50.3975C117.525 50.2054 117.083 50.0166 116.441 49.8311ZM122.995 45.8906L125.319 51.6914L127.644 45.8906H128.859V53H127.922V50.2314L128.01 47.2432L125.676 53H124.958L122.629 47.2578L122.722 50.2314V53H121.784V45.8906H122.995ZM136.033 49.7139H132.952V52.2334H136.531V53H132.015V45.8906H136.482V46.6621H132.952V48.9473H136.033V49.7139ZM144.208 46.6621H141.923V53H140.99V46.6621H138.71V45.8906H144.208V46.6621ZM152.095 49.6748C152.095 50.3714 151.978 50.9801 151.743 51.501C151.509 52.0186 151.177 52.4141 150.747 52.6875C150.317 52.9609 149.816 53.0977 149.243 53.0977C148.683 53.0977 148.187 52.9609 147.754 52.6875C147.321 52.4108 146.984 52.0186 146.743 51.5107C146.506 50.9997 146.383 50.4089 146.377 49.7383V49.2256C146.377 48.542 146.496 47.9382 146.733 47.4141C146.971 46.89 147.306 46.4896 147.739 46.2129C148.175 45.9329 148.674 45.793 149.233 45.793C149.803 45.793 150.304 45.9313 150.737 46.208C151.174 46.4814 151.509 46.8802 151.743 47.4043C151.978 47.9251 152.095 48.5322 152.095 49.2256V49.6748ZM151.162 49.2158C151.162 48.3727 150.993 47.7266 150.654 47.2773C150.316 46.8249 149.842 46.5986 149.233 46.5986C148.641 46.5986 148.174 46.8249 147.832 47.2773C147.493 47.7266 147.319 48.3516 147.31 49.1523V49.6748C147.31 50.4919 147.48 51.1348 147.822 51.6035C148.167 52.069 148.641 52.3018 149.243 52.3018C149.849 52.3018 150.317 52.082 150.649 51.6426C150.981 51.1999 151.152 50.5667 151.162 49.7432V49.2158ZM155.943 52.2334H159.312V53H155.001V45.8906H155.943V52.2334ZM167.028 49.6748C167.028 50.3714 166.911 50.9801 166.677 51.501C166.442 52.0186 166.11 52.4141 165.681 52.6875C165.251 52.9609 164.75 53.0977 164.177 53.0977C163.617 53.0977 163.12 52.9609 162.688 52.6875C162.255 52.4108 161.918 52.0186 161.677 51.5107C161.439 50.9997 161.317 50.4089 161.311 49.7383V49.2256C161.311 48.542 161.429 47.9382 161.667 47.4141C161.905 46.89 162.24 46.4896 162.673 46.2129C163.109 45.9329 163.607 45.793 164.167 45.793C164.737 45.793 165.238 45.9313 165.671 46.208C166.107 46.4814 166.442 46.8802 166.677 47.4043C166.911 47.9251 167.028 48.5322 167.028 49.2256V49.6748ZM166.096 49.2158C166.096 48.3727 165.926 47.7266 165.588 47.2773C165.249 46.8249 164.776 46.5986 164.167 46.5986C163.575 46.5986 163.107 46.8249 162.766 47.2773C162.427 47.7266 162.253 48.3516 162.243 49.1523V49.6748C162.243 50.4919 162.414 51.1348 162.756 51.6035C163.101 52.069 163.575 52.3018 164.177 52.3018C164.782 52.3018 165.251 52.082 165.583 51.6426C165.915 51.1999 166.086 50.5667 166.096 49.7432V49.2158ZM175.184 52.0674C174.943 52.4124 174.606 52.6712 174.173 52.8438C173.743 53.013 173.242 53.0977 172.669 53.0977C172.09 53.0977 171.575 52.9626 171.126 52.6924C170.677 52.4189 170.328 52.0316 170.081 51.5303C169.837 51.029 169.712 50.4479 169.705 49.7871V49.167C169.705 48.096 169.954 47.266 170.452 46.6768C170.953 46.0876 171.657 45.793 172.562 45.793C173.304 45.793 173.901 45.9834 174.354 46.3643C174.806 46.7419 175.083 47.279 175.184 47.9756H174.246C174.07 47.0348 173.51 46.5645 172.566 46.5645C171.938 46.5645 171.461 46.7858 171.136 47.2285C170.813 47.668 170.651 48.306 170.647 49.1426V49.7236C170.647 50.5212 170.83 51.1559 171.194 51.6279C171.559 52.0967 172.052 52.3311 172.674 52.3311C173.025 52.3311 173.333 52.292 173.597 52.2139C173.86 52.1357 174.078 52.0039 174.251 51.8184V50.2217H172.605V49.46H175.184V52.0674ZM179.257 53H178.319V45.8906H179.257V53ZM184.57 49.8311C183.766 49.5999 183.18 49.3167 182.812 48.9814C182.448 48.6429 182.266 48.2262 182.266 47.7314C182.266 47.1715 182.489 46.7093 182.935 46.3447C183.384 45.9769 183.966 45.793 184.683 45.793C185.171 45.793 185.605 45.8874 185.986 46.0762C186.37 46.265 186.667 46.5254 186.875 46.8574C187.087 47.1895 187.192 47.5524 187.192 47.9463H186.25C186.25 47.5166 186.113 47.1797 185.84 46.9355C185.566 46.6882 185.181 46.5645 184.683 46.5645C184.22 46.5645 183.859 46.667 183.599 46.8721C183.341 47.0739 183.213 47.3555 183.213 47.7168C183.213 48.0065 183.335 48.2523 183.579 48.4541C183.826 48.6527 184.245 48.835 184.834 49.001C185.426 49.167 185.889 49.3509 186.221 49.5527C186.556 49.7513 186.803 49.984 186.963 50.251C187.126 50.5179 187.207 50.832 187.207 51.1934C187.207 51.7695 186.982 52.2318 186.533 52.5801C186.084 52.9251 185.483 53.0977 184.731 53.0977C184.243 53.0977 183.787 53.0049 183.364 52.8193C182.941 52.6305 182.614 52.3734 182.383 52.0479C182.155 51.7223 182.041 51.3529 182.041 50.9395H182.983C182.983 51.3691 183.141 51.7093 183.457 51.96C183.776 52.2074 184.201 52.3311 184.731 52.3311C185.226 52.3311 185.605 52.2301 185.869 52.0283C186.133 51.8265 186.265 51.5514 186.265 51.2031C186.265 50.8548 186.143 50.5863 185.898 50.3975C185.654 50.2054 185.212 50.0166 184.57 49.8311ZM194.825 46.6621H192.54V53H191.607V46.6621H189.327V45.8906H194.825V46.6621Z" fill="#757575"/>
<path d="M5.696 24.816C5.696 27.888 5.696 30.416 5.536 31.76C5.408 32.688 5.28 33.424 4.64 33.552C4.352 33.616 4.128 33.648 3.872 33.648C3.456 33.648 3.392 33.776 3.392 33.872C3.392 34.032 3.552 34.096 3.904 34.096C5.024 34.096 6.016 34 7.04 34C7.168 34 8.064 34.032 8.992 34.096C9.92 34.128 10.944 34.192 11.296 34.192C16.768 34.192 19.456 30.64 19.456 27.216C19.456 23.472 16.288 21.2 13.92 20.464C15.424 18.896 16.928 17.328 16.928 14.704C16.928 13.104 15.776 9.904 10.528 9.904C9.056 9.904 7.808 10 7.04 10C6.88 10 4.864 9.904 3.424 9.904C3.072 9.904 2.912 9.968 2.912 10.16C2.912 10.288 3.04 10.352 3.328 10.352C3.456 10.352 4 10.384 4.256 10.448C5.312 10.672 5.568 11.184 5.632 12.272C5.696 13.296 5.696 14.192 5.696 19.184V24.816ZM8.256 11.312C8.256 11.12 8.352 11.024 8.64 10.96C9.152 10.832 9.824 10.8 10.176 10.8C13.312 10.8 14.496 13.648 14.496 16.304C14.496 17.616 14.016 18.768 13.344 19.536C12.672 20.304 12.224 20.368 10.432 20.368C9.248 20.368 8.672 20.272 8.48 20.24C8.32 20.176 8.256 20.112 8.256 19.888V11.312ZM8.256 21.456C8.256 21.296 8.32 21.232 8.448 21.232C8.928 21.232 10.528 21.232 10.944 21.296C11.712 21.392 12.512 21.488 13.6 22.224C16.064 23.92 16.704 26.704 16.704 28.624C16.704 32.24 13.92 33.168 12.192 33.168C11.616 33.168 10.24 33.104 9.376 32.688C8.384 32.208 8.384 31.76 8.288 30.192C8.256 29.712 8.256 25.744 8.256 23.28V21.456ZM26.8663 26.192C26.8663 28.624 26.8343 29.936 26.8023 31.024C26.7383 33.008 26.3543 33.424 25.7783 33.552C25.5543 33.616 25.3303 33.648 25.1383 33.648C24.9783 33.648 24.8503 33.744 24.8503 33.872C24.8503 34.032 25.0103 34.096 25.2983 34.096C26.0663 34.096 26.6743 34 27.4103 34C28.5943 34 30.0663 34.064 31.1863 34.096C32.3063 34.096 33.2023 34.16 35.3143 34.16C36.3703 34.16 36.5943 34.096 36.7223 33.456C36.8183 32.912 37.0743 30.896 37.0743 30.672C37.0743 30.48 37.0743 30.192 36.8823 30.192C36.7543 30.192 36.6583 30.32 36.5943 30.64C36.3383 31.824 36.1143 32.464 35.1543 32.752C34.3543 32.976 33.3303 32.944 32.7223 32.944C31.6343 32.944 30.8663 32.88 30.3863 32.656C29.7143 32.368 29.5543 31.76 29.4903 30.576C29.4583 30.032 29.4903 27.216 29.4903 26.224V23.888C29.4903 23.76 29.5223 23.664 29.7143 23.664C30.2263 23.664 32.8183 23.728 33.5543 23.792C34.7703 23.888 34.9623 24.336 35.0903 24.752C35.1543 25.008 35.1863 25.328 35.1863 25.52C35.1863 25.744 35.2183 25.936 35.3783 25.936C35.5063 25.936 35.5703 25.84 35.6023 25.584C35.6343 25.168 35.6343 24.528 35.7303 23.632C35.8263 22.704 35.9543 22.096 35.9543 21.936C35.9543 21.776 35.8903 21.744 35.8263 21.744C35.6983 21.744 35.6023 21.808 35.4743 22C35.2183 22.352 34.7383 22.448 34.0023 22.48C33.3303 22.544 30.0663 22.576 29.6823 22.576C29.5223 22.576 29.4903 22.448 29.4903 22.256V14.992C29.4903 14.8 29.5543 14.736 29.6503 14.736C29.7143 14.736 32.8823 14.768 33.2983 14.8C34.8983 14.896 35.1863 15.12 35.3783 15.76C35.4743 15.984 35.5703 16.304 35.6023 16.784C35.6023 17.008 35.6663 17.136 35.8263 17.136C35.9863 17.136 36.0503 16.944 36.0503 16.656C36.0823 16.048 36.1143 15.536 36.1463 14.992C36.2103 14.192 36.4023 13.744 36.4023 13.552C36.4023 13.392 36.3383 13.328 36.2743 13.328C36.1463 13.328 36.1143 13.36 35.9223 13.424C35.6663 13.52 35.3143 13.552 34.6743 13.584C34.0343 13.616 28.3383 13.616 28.1783 13.616C26.3863 13.584 25.5223 13.52 24.8823 13.52C24.5623 13.52 24.4023 13.584 24.4023 13.776C24.4023 13.872 24.5943 13.968 24.8183 13.968C25.0743 13.968 25.3943 14 25.5863 14.032C26.5143 14.224 26.7383 14.672 26.8023 15.568C26.8663 16.432 26.8663 17.2 26.8663 21.392V26.192ZM50.45 14.768C51.378 14.768 52.37 14.8 53.586 14.8C56.818 14.832 57.234 15.152 57.362 16.432C57.394 16.752 57.394 16.784 57.394 16.88C57.394 17.136 57.458 17.264 57.618 17.264C57.714 17.264 57.842 17.168 57.842 16.88C57.842 16.624 57.906 14.512 57.906 13.616C57.906 13.488 57.842 13.328 57.714 13.328C57.618 13.328 57.522 13.36 57.106 13.456C56.658 13.552 55.698 13.616 54.802 13.616H44.306C44.274 13.616 43.378 13.584 42.258 13.456C41.682 13.392 41.074 13.104 40.85 13.104C40.754 13.104 40.658 13.232 40.562 13.616C40.37 14.48 39.89 16.592 39.922 16.784C39.922 16.944 39.954 17.072 40.082 17.072C40.21 17.072 40.274 17.04 40.37 16.816C40.434 16.656 40.562 16.272 40.85 15.824C41.298 15.152 41.746 14.832 43.794 14.8C45.074 14.768 46.77 14.768 47.826 14.768V26.192C47.826 28.592 47.826 30.896 47.698 32.048C47.57 33.136 47.474 33.52 46.866 33.616C46.61 33.648 46.418 33.648 46.162 33.648C45.906 33.648 45.81 33.776 45.81 33.872C45.81 34.032 45.938 34.096 46.29 34.096C47.122 34.096 49.01 34 49.138 34C49.266 34 51.154 34.096 52.786 34.096C53.106 34.096 53.202 34 53.202 33.84C53.202 33.744 53.074 33.648 52.818 33.648C52.562 33.648 51.954 33.616 51.57 33.52C50.77 33.328 50.706 32.88 50.61 32.112C50.482 30.928 50.45 28.656 50.45 26.192V14.768ZM66.6198 22.096C66.5238 22.096 66.4278 22.096 66.4278 21.936V21.36C66.4278 17.136 66.4278 16.432 66.4598 15.568C66.5238 14.672 66.7158 14.128 67.5158 14C67.8678 13.936 67.9638 13.936 68.1558 13.936C68.3478 13.936 68.4758 13.872 68.4758 13.744C68.4758 13.584 68.3158 13.52 67.9958 13.52C67.0998 13.52 65.2438 13.616 65.1158 13.616C64.6998 13.616 63.1638 13.52 61.7878 13.52C61.4678 13.52 61.3078 13.552 61.3078 13.744C61.3078 13.84 61.4358 13.936 61.6598 13.936C61.9158 13.936 62.2358 13.968 62.5238 14C63.4518 14.096 63.6758 14.704 63.7398 15.536C63.8038 16.4 63.8038 17.232 63.8038 21.456V26.192C63.8038 28.816 63.8358 30.96 63.6438 32.112C63.5477 32.816 63.4198 33.424 62.8438 33.552C62.5878 33.616 62.3318 33.648 62.0758 33.648C61.7878 33.648 61.7238 33.776 61.7238 33.872C61.7238 34.032 61.9158 34.096 62.2358 34.096C63.0677 34.096 65.0198 34 65.1158 34C65.2758 34 67.1638 34.096 68.7958 34.096C69.0838 34.096 69.2118 34 69.2118 33.872C69.2118 33.744 69.0518 33.648 68.8278 33.648C68.5718 33.648 68.0918 33.616 67.6758 33.552C66.8438 33.456 66.6838 32.816 66.5878 32.112C66.4278 30.96 66.4278 28.88 66.4278 26.288V23.44C66.4278 23.28 66.4918 23.248 66.5878 23.248H78.2038C78.2998 23.248 78.3958 23.312 78.3958 23.44V26.288C78.3958 28.88 78.3958 30.896 78.2358 32.048C78.1398 32.784 77.9798 33.488 77.4358 33.584C77.1798 33.648 76.9558 33.648 76.6998 33.648C76.4438 33.648 76.3478 33.744 76.3478 33.84C76.3478 34.032 76.5078 34.096 76.8278 34.096C77.6918 34.096 79.5478 34 79.6758 34C79.8358 34 81.6918 34.096 83.2918 34.096C83.6118 34.096 83.7718 34.032 83.7718 33.872C83.7718 33.744 83.6118 33.648 83.3558 33.648C83.0678 33.648 82.6518 33.616 82.2358 33.552C81.4038 33.456 81.2438 32.816 81.1478 32.048C81.0198 30.896 81.0198 28.816 81.0198 26.192V21.392C81.0198 17.168 81.0198 16.432 81.0518 15.568C81.1158 14.672 81.2438 14.16 82.1078 14.032C82.2998 14 82.5558 13.968 82.7478 13.968C83.0038 13.968 83.0998 13.84 83.0998 13.744C83.0998 13.552 82.9078 13.52 82.5878 13.52C81.6278 13.52 79.8358 13.616 79.7078 13.616C79.5798 13.616 77.6918 13.52 76.3478 13.52C76.0598 13.52 75.8998 13.552 75.8998 13.744C75.8998 13.872 76.0598 13.968 76.2838 13.968C76.5398 13.968 76.8598 14 77.0838 14.032C78.1398 14.224 78.2678 14.672 78.3318 15.536C78.3958 16.4 78.3958 17.136 78.3958 21.36V21.936C78.3958 22.096 78.2998 22.096 78.2038 22.096H66.6198ZM104.697 19.184C104.697 14.192 104.697 13.296 104.76 12.272C104.825 11.152 105.081 10.608 106.009 10.448C106.393 10.384 106.841 10.352 107.065 10.352C107.193 10.352 107.321 10.288 107.321 10.16C107.321 9.968 107.161 9.904 106.809 9.904C105.849 9.904 103.513 10 103.353 10C103.193 10 101.177 9.904 99.7365 9.904C99.3845 9.904 99.2245 9.968 99.2245 10.16C99.2245 10.288 99.3525 10.352 99.4805 10.352C99.7685 10.352 100.312 10.384 100.569 10.448C101.625 10.672 101.881 11.184 101.945 12.272C102.009 13.296 102.009 14.192 102.009 19.184V24.816C102.009 27.888 102.009 30.416 101.849 31.76C101.721 32.688 101.561 33.392 100.921 33.52C100.633 33.584 100.249 33.648 99.9605 33.648C99.7685 33.648 99.7045 33.744 99.7045 33.84C99.7045 34.032 99.8645 34.096 100.217 34.096C101.401 34.096 102.361 34 103.353 34C106.457 34 109.177 34.192 111.929 34.192C113.625 34.192 113.721 34.064 113.944 33.328C114.201 32.4 114.425 30.48 114.425 30.128C114.425 29.776 114.392 29.648 114.233 29.648C114.041 29.648 113.977 29.808 113.944 30.064C113.849 30.672 113.529 31.472 113.113 31.984C112.345 32.912 110.937 32.944 109.241 32.944C106.745 32.944 105.913 32.72 105.401 32.208C104.825 31.632 104.697 29.584 104.697 24.88V19.184ZM121.234 21.392C121.234 17.168 121.234 16.432 121.266 15.568C121.33 14.672 121.458 14.128 122.226 14.032C122.482 14 122.738 13.968 122.93 13.968C123.09 13.968 123.314 13.904 123.314 13.744C123.314 13.584 123.218 13.52 122.866 13.52C122.002 13.52 120.114 13.616 119.858 13.616C119.634 13.616 117.906 13.52 116.53 13.52C116.178 13.52 116.05 13.584 116.05 13.776C116.05 13.872 116.178 13.968 116.402 13.968C116.658 13.968 117.042 14 117.234 14.032C118.226 14.16 118.386 14.704 118.418 15.568C118.514 16.432 118.514 17.168 118.514 21.392V25.36C118.514 29.328 119.506 31.248 120.882 32.528C122.962 34.448 125.97 34.448 126.866 34.448C128.594 34.448 130.642 34.288 132.722 32.528C134.994 30.576 135.314 27.12 135.314 24.24V21.392C135.314 17.2 135.314 16.464 135.346 15.6C135.41 14.672 135.538 14.096 136.434 14C136.754 13.968 136.818 13.968 137.01 13.968C137.202 13.968 137.33 13.872 137.33 13.744C137.33 13.584 137.202 13.52 136.882 13.52C135.986 13.52 134.61 13.616 134.45 13.616C134.322 13.616 132.722 13.52 131.346 13.52C131.058 13.52 130.898 13.584 130.898 13.776C130.898 13.872 131.026 13.968 131.218 13.968C131.506 13.968 131.89 14 132.114 14.032C133.138 14.192 133.234 14.672 133.298 15.6C133.362 16.464 133.362 17.2 133.362 21.392V24.784C133.362 27.568 133.074 30 131.794 31.472C130.578 32.88 129.074 33.328 127.41 33.328C126.098 33.328 124.562 33.072 123.186 31.856C121.97 30.768 121.234 29.104 121.234 25.2V21.392ZM153.06 34.448C154.852 34.448 156.996 34.288 158.116 33.808C158.564 33.616 158.66 33.52 158.852 33.008C159.076 32.304 159.492 29.712 159.492 29.456C159.492 29.232 159.492 29.008 159.332 29.008C159.14 29.008 159.044 29.168 158.98 29.488C158.82 30.384 158.5 31.184 157.924 31.792C156.804 32.88 155.204 33.104 153.028 33.104C147.396 33.104 143.076 28.432 143.076 23.12C143.076 20.304 143.556 18 145.636 16.112C146.596 15.248 148.228 14.256 151.78 14.256C154.244 14.256 156.484 15.056 157.444 15.888C158.244 16.496 158.692 17.744 158.692 18.672C158.692 19.088 158.724 19.28 158.948 19.28C159.108 19.28 159.172 19.12 159.204 18.672C159.236 18.288 159.236 16.624 159.268 15.728C159.332 14.704 159.428 14.416 159.428 14.16C159.428 14 159.396 13.84 159.14 13.84C158.372 13.808 157.348 13.648 156.324 13.488C154.756 13.264 153.572 13.136 152.1 13.136C147.812 13.136 145.22 14.32 143.492 15.984C140.964 18.416 140.26 21.584 140.26 23.376C140.26 26.032 140.964 29.168 143.684 31.536C145.956 33.488 148.836 34.448 153.06 34.448ZM173.38 26.288C173.508 26.288 173.572 26.352 173.636 26.448L176.164 32.88C176.356 33.36 176.164 33.52 176.036 33.584C175.908 33.616 175.812 33.712 175.812 33.808C175.812 33.968 176.004 34 176.612 34.032C178.756 34.096 181.156 34.096 181.476 34.096C181.828 34.096 181.956 34.032 181.956 33.872C181.956 33.712 181.796 33.648 181.572 33.648C181.348 33.648 180.9 33.648 180.484 33.488C180.036 33.328 179.108 32.912 178.052 30.384C176.356 26.384 172.004 15.216 171.556 14.16C171.204 13.264 171.076 13.136 170.916 13.136C170.692 13.136 170.595 13.296 170.244 14.224L163.844 31.088C163.299 32.432 162.756 33.488 161.38 33.616C161.188 33.648 160.899 33.648 160.739 33.648C160.483 33.648 160.355 33.744 160.355 33.872C160.355 34.032 160.515 34.096 160.867 34.096C162.212 34.096 163.62 34 163.94 34C164.292 34 165.764 34.096 166.468 34.096C166.692 34.096 166.948 34.032 166.948 33.872C166.948 33.744 166.852 33.648 166.564 33.648C166.468 33.648 166.436 33.648 166.34 33.648C165.636 33.648 165.284 33.392 165.284 32.816C165.284 32.304 165.508 31.44 165.828 30.544L167.236 26.544C167.3 26.384 167.396 26.288 167.556 26.288H173.38ZM167.876 25.168C167.812 25.168 167.748 25.104 167.812 24.976L170.212 17.904C170.372 17.456 170.404 17.456 170.564 17.904L173.092 24.976C173.124 25.072 173.124 25.168 172.996 25.168H167.876ZM187.434 34.448C189.066 34.448 190.442 34.096 191.562 33.328C193.482 31.952 193.898 30 193.898 28.912C193.898 26.896 193.226 25.264 189.962 22.768L189.098 22.128C186.218 20.016 185.514 18.928 185.514 17.328C185.514 15.088 186.986 13.904 189.13 13.904C191.402 13.904 192.33 14.736 192.65 15.216C192.938 15.664 193.002 16.304 193.034 16.72C193.034 16.912 193.066 17.04 193.194 17.04C193.322 17.04 193.354 16.88 193.354 16.496C193.354 14.704 193.482 13.84 193.482 13.68C193.482 13.584 193.45 13.552 193.258 13.552C193.002 13.52 192.714 13.488 192.266 13.392C191.594 13.264 190.762 13.136 189.674 13.136C186.154 13.136 184.074 15.12 184.074 17.936C184.074 19.76 184.906 21.424 187.658 23.536L188.97 24.56C191.626 26.608 192.33 27.696 192.33 29.68C192.33 31.792 190.826 33.648 188.042 33.648C185.994 33.648 184.33 32.944 183.946 31.152C183.85 30.8 183.85 30.384 183.85 30.064C183.85 29.84 183.786 29.744 183.69 29.744C183.562 29.744 183.53 29.872 183.498 30.16C183.434 30.608 183.37 31.632 183.37 32.816C183.37 33.392 183.402 33.552 183.786 33.744C184.81 34.224 186.122 34.448 187.434 34.448Z" fill="#536073"/>
</svg>
