<svg width="185" height="98" viewBox="0 0 185 98" fill="none" xmlns="http://www.w3.org/2000/svg">
<g opacity="0.5">
<path d="M103.245 13.1308C103.194 14.6695 102.846 16.1283 102.258 17.529C101.09 20.3087 99.0647 22.203 96.2414 23.2481C95.9439 23.3569 95.8713 23.4948 95.8713 23.7924C95.8785 29.8889 95.8931 35.9854 95.864 42.0819C95.8568 43.3955 96.4156 44.3535 97.4099 45.1156C98.3462 45.8268 99.4058 46.2333 100.574 46.3639C101.663 46.4873 102.744 46.4945 103.833 46.3349C105.829 46.0373 107.026 44.76 107.81 43.0108C108.587 41.2763 108.921 39.44 108.95 37.553C108.979 35.6805 108.986 33.8081 108.826 31.9356C108.638 29.7002 107.897 27.7479 106.076 26.3181C104.885 25.3818 103.514 24.8375 102.04 24.5182C101.772 24.4601 101.496 24.3875 101.242 24.2859C101.039 24.2061 100.843 24.0464 100.865 23.8069C100.886 23.5384 101.14 23.4876 101.351 23.4513C102.396 23.2699 103.448 23.1102 104.493 22.9215C106.206 22.6167 107.934 22.4352 109.625 21.9852C109.799 21.9417 109.973 21.8836 110.14 21.8256C110.946 21.5207 111.2 20.9837 110.931 20.1635C110.808 19.7861 110.677 19.4087 110.757 18.9951C110.793 18.8136 110.829 18.6177 110.953 18.4943C111.308 18.1459 111.272 17.7395 111.178 17.3185C111.127 17.1008 111.142 16.9193 111.287 16.7452C111.562 16.4113 111.562 16.0702 111.279 15.7291C111.156 15.5767 111.047 15.417 110.931 15.2646C110.51 14.6912 110.554 14.2485 111.083 13.7695C111.337 13.5445 111.57 13.2977 111.766 13.022C112.005 12.6808 111.998 12.4196 111.715 12.1075C111.519 11.897 111.294 11.7083 111.062 11.5414C109.69 10.5398 108.971 9.2044 108.797 7.50609C108.587 5.47393 107.709 3.69579 106.547 2.03377C106.083 1.37332 105.56 0.756411 105.045 0.103217C105.197 0.0088665 105.35 -0.00564905 105.502 0.00160867C108.137 0.095959 110.728 0.437072 113.159 1.53299C117.303 3.40548 119.764 6.54807 120.352 11.1059C120.78 14.4227 119.974 17.3838 117.804 19.9458C116.251 21.782 114.226 22.8634 111.918 23.4295C111.083 23.6327 110.242 23.7706 109.4 23.9376C109.298 23.9593 109.196 23.9956 108.993 24.0537C110.387 24.2206 111.671 24.4166 112.905 24.8303C116.875 26.1584 119.176 28.9599 120.112 32.9662C120.831 36.0507 120.518 39.0191 119.002 41.8206C118 43.6713 116.461 44.9632 114.618 45.9139C112.419 47.0534 110.053 47.5905 107.614 47.888C105.473 48.1493 103.318 48.0985 101.169 48.1275C94.5068 48.2146 87.8443 48.1566 81.1744 48.1856C80.4196 48.1856 80.4196 48.1856 80.4124 47.4308C80.4124 46.5889 80.4559 46.5381 81.2833 46.3567C82.909 46.001 83.9832 45.043 84.3678 43.4028C84.5347 42.6842 84.4404 41.9294 84.4549 41.1964C84.4767 39.4691 84.5202 37.7345 84.4259 36.0071C84.3025 33.7573 85.0791 31.7904 86.2766 29.947C87.4233 28.1761 88.8531 26.6592 90.4207 25.2657C93.44 22.5876 96.4664 19.9168 99.4711 17.2169C100.792 16.0266 102.019 14.7348 103.085 13.305C103.151 13.2397 103.202 13.1889 103.245 13.1308Z" fill="white" class="svg-elem-1"></path>
<path d="M77.4148 26.6376C77.4148 32.5163 77.4148 38.3951 77.4148 44.2739C77.4148 45.348 77.3858 46.4221 77.4438 47.5035C77.4729 48.0914 77.2551 48.3091 76.6455 48.3091C74.8456 48.3091 73.0384 48.2946 71.2385 48.2946C68.4806 48.2946 65.7226 48.3164 62.9647 48.2946C61.8107 48.2874 62.0502 48.3745 61.9922 47.3076C61.9631 46.8431 62.1155 46.6907 62.6308 46.5237C63.1607 46.3496 63.6977 46.2262 64.184 45.9359C65.5049 45.1375 66.0928 43.9835 66.0492 42.4231C65.9912 40.2386 65.9984 38.0467 66.0129 35.8549C66.0783 28.5246 66.0492 21.2016 66.0492 13.8713C66.0492 11.1496 66.042 8.42798 66.0129 5.70634C65.9912 3.78305 64.888 2.37505 63.0155 1.96136C61.7527 1.68557 62.0285 1.46783 62.0067 0.662227C61.9922 0.096125 62.0067 0.0888672 62.5655 0.0888672C69.6491 0.103383 76.7398 0.110641 83.8234 0.146929C85.6596 0.154187 87.503 0.11064 89.332 0.263053C92.2786 0.509815 95.1454 1.06866 97.7727 2.49843C98.0775 2.66536 98.5711 2.796 98.6146 3.06453C98.6582 3.35484 98.1864 3.55806 97.9324 3.7903C95.9728 5.51764 93.9189 7.13611 91.9085 8.79813C91.8504 8.84893 91.7924 8.9578 91.7053 8.89248C91.6182 8.83442 91.6399 8.71829 91.6254 8.62394C91.4367 7.35384 91.0738 6.12729 90.5295 4.9588C89.7166 3.2242 88.3449 2.26618 86.4652 2.01942C84.5346 1.7654 82.6113 1.77992 80.7026 2.22264C80.3034 2.31699 79.9115 2.44763 79.5341 2.6073C78.0825 3.23146 77.4148 4.3564 77.4148 5.91681C77.4148 12.8262 77.4148 19.7282 77.4148 26.6376Z" fill="white" class="svg-elem-2"></path>
<path d="M102.694 2.20801C103.173 3.2386 103.499 4.25468 103.593 5.33608C103.775 7.52066 102.984 9.40766 101.794 11.1713C100.611 12.9277 99.13 14.4155 97.5841 15.8453C96.2559 17.0718 94.8697 18.2476 93.5198 19.4523C91.8795 20.9111 90.2247 22.3627 88.5918 23.8288C86.3636 25.8319 84.4041 28.0455 83.1702 30.8179C83.0832 31.0139 82.9961 31.2098 82.8872 31.4711C82.6259 30.7163 82.4662 29.9978 82.3356 29.272C81.6316 25.3529 82.7058 21.8764 84.9774 18.6975C86.4507 16.6364 88.2579 14.909 90.1739 13.2688C92.8303 10.9898 95.5737 8.81253 98.259 6.5699C99.834 5.24173 101.344 3.85551 102.694 2.20801Z" fill="white" class="svg-elem-3"></path>
<path d="M1.93888 71.9682C1.93888 73.7343 1.93888 75.2508 1.8429 76.0571C1.76611 76.6138 1.67012 77.0361 1.28619 77.1129C1.11342 77.1513 0.883054 77.1897 0.595102 77.1897C0.36474 77.1897 0.287952 77.2473 0.287952 77.3433C0.287952 77.4777 0.42233 77.5353 0.671889 77.5353C1.43976 77.5353 2.64916 77.4777 3.09069 77.4777C3.58981 77.4777 4.79921 77.5353 6.0662 77.5353C6.27736 77.5353 6.43094 77.4777 6.43094 77.3433C6.43094 77.2473 6.33495 77.1897 6.12379 77.1897C5.83584 77.1897 5.41351 77.1513 5.14475 77.1129C4.56884 77.0361 4.45366 76.6138 4.39607 76.0763C4.30009 75.2508 4.30009 73.7343 4.30009 71.9682V64.2895C4.30009 64.0783 4.35768 63.9631 4.45366 63.9247C4.62644 63.8671 4.91439 63.8479 5.20234 63.8479C5.64387 63.8479 6.43094 63.9631 7.12202 64.5966C8.19704 65.5564 8.25463 66.8426 8.25463 67.4761C8.25463 69.4342 6.75728 70.6436 5.68226 70.6436C5.27913 70.6436 5.14475 70.7012 5.14475 70.8548C5.14475 70.9891 5.27913 71.0083 5.37511 71.0275C5.4711 71.0467 5.68226 71.0467 5.77824 71.0467C8.50419 71.0467 10.5007 69.1271 10.5007 66.4011C10.5007 65.3837 9.96315 64.5198 9.54082 64.1167C9.23367 63.8287 8.36982 63.0225 5.97021 63.0225C5.08716 63.0225 3.97374 63.0801 3.18667 63.0801C2.64916 63.0801 1.43976 63.0225 0.42233 63.0225C0.134378 63.0225 0 63.0609 0 63.1952C0 63.3296 0.115181 63.368 0.326346 63.368C0.595102 63.368 0.921448 63.3872 1.07502 63.4256C1.70852 63.56 1.86209 63.8671 1.90049 64.5198C1.93888 65.1341 1.93888 65.6716 1.93888 68.5895V71.9682Z" fill="white" class="svg-elem-4"></path>
<path d="M19.2021 77.7464C23.5598 77.7464 26.2857 74.8093 26.2857 71.0659C26.2857 67.3225 23.6365 64.9613 19.3748 64.9613C14.2493 64.9613 12.2912 68.5703 12.2912 71.3539C12.2912 74.2526 14.2877 77.7464 19.2021 77.7464ZM19.8932 76.8634C16.7065 76.8634 14.7868 74.2142 14.7868 70.8548C14.7868 66.8234 16.9944 65.8252 18.8757 65.8252C21.6017 65.8252 23.7709 68.052 23.7709 71.661C23.7709 76.3067 21.0834 76.8634 19.8932 76.8634Z" fill="white" class="svg-elem-5"></path>
<path d="M32.0284 77.1513C32.182 77.5737 32.278 77.7464 32.4891 77.7464C32.7387 77.7464 32.8347 77.5545 33.1418 76.8826C33.8329 75.3852 36.0981 69.607 36.3861 68.9159H36.4245L39.8607 76.9594C40.1103 77.5545 40.2254 77.7464 40.4558 77.7464C40.7054 77.7464 40.8014 77.5545 40.9933 76.9786C41.8188 74.5406 43.5465 69.3574 44.3336 67.3034C44.6791 66.3627 44.8711 65.7484 45.2742 65.5948C45.4662 65.5372 45.6965 65.518 45.8693 65.518C46.0229 65.518 46.0997 65.4413 46.0997 65.3261C46.0997 65.2301 45.9845 65.1917 45.7925 65.1917C45.2358 65.1917 44.5063 65.2301 44.3912 65.2301C44.2376 65.2301 43.4697 65.1917 42.5867 65.1917C42.3179 65.1917 42.1835 65.2301 42.1835 65.3453C42.1835 65.4413 42.3179 65.518 42.4715 65.518C43.1434 65.518 43.2969 65.71 43.2969 65.9788C43.2969 66.2091 43.2393 66.5355 43.1242 66.9194C42.5291 68.8199 41.2429 73.12 40.9165 74.0606H40.8589L37.4803 66.0172C37.2691 65.4989 37.1156 65.2493 36.9236 65.2493C36.77 65.2493 36.5972 65.3837 36.4245 65.8444L33.1994 74.1758H33.1418C32.8923 73.4271 31.3565 68.4936 31.0686 67.4185C30.8574 66.6699 30.7038 66.1323 30.7038 65.9212C30.7038 65.7484 30.723 65.6524 30.8766 65.5948C31.011 65.5372 31.1645 65.518 31.2989 65.518C31.4717 65.518 31.6061 65.4605 31.6061 65.3453C31.6061 65.2301 31.4909 65.1917 31.2413 65.1917C30.2623 65.1917 29.4368 65.2301 29.2833 65.2301C29.1297 65.2301 28.189 65.1917 27.3252 65.1917C27.0756 65.1917 26.9412 65.2301 26.9412 65.3453C26.9412 65.4605 27.0372 65.518 27.21 65.518C27.3636 65.518 27.6899 65.5372 27.8627 65.6524C28.1123 65.806 28.2466 66.1899 28.4578 66.785L32.0284 77.1513Z" fill="white" class="svg-elem-6"></path>
<path d="M48.3472 72.7936C48.3472 74.291 48.3472 75.5772 48.2704 76.2683C48.2128 76.7482 48.1168 77.0553 47.7713 77.1321C47.6177 77.1705 47.4258 77.1897 47.1762 77.1897C46.965 77.1897 46.9074 77.2857 46.9074 77.3625C46.9074 77.4777 47.0226 77.5353 47.2338 77.5353C47.5793 77.5353 48.0017 77.5161 48.4048 77.4969C48.8079 77.4969 49.1727 77.4777 49.3646 77.4777C49.8638 77.4777 50.4972 77.4969 51.3227 77.5161C52.1482 77.5545 53.1656 77.5737 54.4326 77.5737C55.0661 77.5737 55.2197 77.5737 55.3348 77.1513C55.4308 76.825 55.5652 75.7116 55.5652 75.3468C55.5652 75.1741 55.546 74.9629 55.4116 74.9629C55.2965 74.9629 55.2581 75.0397 55.2197 75.2124C55.1045 75.8843 54.9125 76.2299 54.4902 76.4218C54.0487 76.6138 53.3384 76.633 52.8969 76.633C51.1691 76.633 50.6508 76.3835 50.6124 75.27C50.5932 74.7901 50.6124 73.4079 50.6124 72.8512V71.5459C50.6124 71.4499 50.6316 71.3731 50.7084 71.3731C51.1307 71.3731 53.0504 71.4115 53.3576 71.4499C53.9911 71.5075 54.2022 71.757 54.2982 72.0834C54.3366 72.2945 54.3366 72.5057 54.3558 72.6785C54.3558 72.7553 54.3942 72.8128 54.5094 72.8128C54.663 72.8128 54.6822 72.5825 54.6822 72.4481C54.6822 72.3329 54.7205 71.6802 54.7589 71.3539C54.8549 70.5284 54.8933 70.2597 54.8933 70.1637C54.8933 70.0677 54.8357 69.9909 54.7589 69.9909C54.6822 69.9909 54.6246 70.0869 54.4902 70.2021C54.3366 70.3748 54.0871 70.4132 53.6839 70.4516C53.3 70.49 51.1115 70.49 50.7276 70.49C50.6316 70.49 50.6124 70.4132 50.6124 70.3173V66.2859C50.6124 66.1899 50.6508 66.1323 50.7276 66.1323C51.0732 66.1323 53.0888 66.1707 53.3768 66.2091C54.2214 66.2859 54.3558 66.5163 54.4902 66.8042C54.5862 66.9962 54.6054 67.2842 54.6054 67.3993C54.6054 67.5337 54.6246 67.6105 54.7397 67.6105C54.8741 67.6105 54.9125 67.4185 54.9317 67.3417C54.9701 67.1498 55.0085 66.4395 55.0277 66.2667C55.0661 65.518 55.1621 65.3261 55.1621 65.2109C55.1621 65.1341 55.1429 65.0573 55.0469 65.0573C54.9701 65.0573 54.8741 65.1149 54.7781 65.1341C54.6438 65.1533 54.375 65.2109 54.0679 65.2301C53.7415 65.2493 49.9981 65.2301 49.4606 65.2301C48.9807 65.2301 47.9057 65.1917 47.0226 65.1917C46.7731 65.1917 46.6387 65.2301 46.6387 65.3453C46.6387 65.4605 46.7539 65.518 46.9266 65.518C47.1762 65.518 47.4641 65.5372 47.5985 65.5756C48.136 65.7292 48.2896 65.902 48.328 66.4587C48.3472 66.977 48.3472 67.4377 48.3472 69.9141V72.7936Z" fill="white" class="svg-elem-7"></path>
<path d="M59.4079 72.7936C59.4079 74.291 59.4079 75.5772 59.3311 76.2683C59.2735 76.7482 59.1775 77.0553 58.832 77.1321C58.6784 77.1705 58.4864 77.1897 58.2369 77.1897C58.0257 77.1897 57.9681 77.2857 57.9681 77.3625C57.9681 77.4777 58.0833 77.5353 58.2945 77.5353C58.9664 77.5353 60.0414 77.4777 60.3677 77.4777C60.6173 77.4777 62.0186 77.5353 62.9977 77.5353C63.2088 77.5353 63.3432 77.4777 63.3432 77.3625C63.3432 77.2857 63.2664 77.1897 63.1321 77.1897C62.9209 77.1897 62.5562 77.1705 62.3066 77.1321C61.7883 77.0553 61.7115 76.7482 61.6539 76.2683C61.5771 75.5772 61.5579 74.3102 61.5579 72.7936V72.5633C61.5579 72.4673 61.6155 72.4289 61.6923 72.4289L63.2088 72.4673C63.324 72.4673 63.42 72.4865 63.516 72.5825C63.7272 72.832 64.4374 73.9263 65.1093 74.8093C66.05 76.0763 66.6835 76.8442 67.4129 77.2089C67.8545 77.4393 68.3152 77.5353 69.2558 77.5353H70.8684C71.0795 77.5353 71.1947 77.4969 71.1947 77.3625C71.1947 77.2857 71.1179 77.1897 70.9836 77.1897C70.8492 77.1897 70.7532 77.1897 70.5804 77.1513C70.3117 77.0937 69.7166 77.0169 68.7759 76.0763C67.7585 75.0589 66.5683 73.5807 65.0709 71.7378C66.7219 70.4132 67.4129 69.3382 67.4129 68.1288C67.4129 67.0346 66.7027 66.2091 66.2227 65.8828C65.3205 65.2877 64.0919 65.1917 63.0169 65.1917C62.4986 65.1917 60.9628 65.2301 60.3869 65.2301C60.0414 65.2301 58.9663 65.1917 58.0833 65.1917C57.8337 65.1917 57.6994 65.2301 57.6994 65.3453C57.6994 65.4605 57.8145 65.518 57.9873 65.518C58.2369 65.518 58.5248 65.5372 58.6592 65.5756C59.1967 65.7292 59.3503 65.902 59.3887 66.4587C59.4079 66.977 59.4079 67.4377 59.4079 69.9141V72.7936ZM61.5579 66.3243C61.5579 66.1899 61.5963 66.1323 61.7115 66.094C61.8843 66.0556 62.2874 66.0364 62.7097 66.0364C63.708 66.0364 65.2821 66.6315 65.2821 68.9351C65.2821 70.2789 64.7062 70.9891 64.1879 71.3539C63.8999 71.565 63.6696 71.6226 62.9977 71.6226C62.5754 71.6226 62.0762 71.5842 61.7115 71.4691C61.5963 71.4115 61.5579 71.3539 61.5579 71.1811V66.3243Z" fill="white" class="svg-elem-8"></path>
<path d="M80.5695 72.7936C80.5695 74.291 80.5695 75.5772 80.4927 76.2683C80.4352 76.7482 80.3392 77.0553 79.9936 77.1321C79.8592 77.1705 79.6481 77.1897 79.3985 77.1897C79.1874 77.1897 79.1298 77.2857 79.1298 77.3625C79.1298 77.4777 79.2449 77.5353 79.4561 77.5353C80.128 77.5353 81.2798 77.4777 81.6637 77.4777C82.1437 77.4777 83.2763 77.5353 84.3897 77.5353C84.5817 77.5353 84.716 77.4777 84.716 77.3625C84.716 77.2857 84.6393 77.1897 84.4473 77.1897C84.1977 77.1897 83.8138 77.1705 83.5834 77.1321C83.0843 77.0553 82.9883 76.7482 82.9307 76.2875C82.8539 75.5772 82.8348 74.291 82.8348 72.7936V66.1899L84.9656 66.2283C86.4821 66.2475 86.9237 66.7466 86.9621 67.169L86.9813 67.3417C87.0005 67.5913 87.0389 67.6681 87.1732 67.6681C87.2692 67.6681 87.3076 67.5721 87.3268 67.3993C87.3268 66.977 87.3652 65.7676 87.3652 65.4221C87.3652 65.1725 87.346 65.0765 87.2308 65.0765C87.1732 65.0765 87.0389 65.1149 86.7701 65.1533C86.5205 65.1917 86.1558 65.2301 85.6183 65.2301H78.765C78.2083 65.2301 77.5748 65.2109 77.0757 65.1533C76.6534 65.0957 76.4806 64.9613 76.3462 64.9613C76.2502 64.9613 76.1926 65.0573 76.1543 65.2685C76.1159 65.4029 75.7895 66.977 75.7895 67.2458C75.7895 67.4185 75.8279 67.5145 75.9431 67.5145C76.0583 67.5145 76.0967 67.4377 76.1351 67.3034C76.1735 67.1882 76.2502 66.977 76.423 66.7466C76.6726 66.3819 77.0757 66.2667 78.0547 66.2475L80.5695 66.1899V72.7936Z" fill="white" class="svg-elem-9"></path>
<path d="M95.2957 77.7464C99.6534 77.7464 102.379 74.8093 102.379 71.0659C102.379 67.3225 99.7302 64.9613 95.4685 64.9613C90.343 64.9613 88.3849 68.5703 88.3849 71.3539C88.3849 74.2526 90.3813 77.7464 95.2957 77.7464ZM95.9868 76.8634C92.8001 76.8634 90.8805 74.2142 90.8805 70.8548C90.8805 66.8234 93.0881 65.8252 94.9694 65.8252C97.6954 65.8252 99.8646 68.052 99.8646 71.661C99.8646 76.3067 97.177 76.8634 95.9868 76.8634Z" fill="white" class="svg-elem-10"></path>
<path d="M112.246 71.9682C112.246 73.7343 112.246 75.2508 112.15 76.0571C112.073 76.6138 111.977 77.0361 111.593 77.1129C111.42 77.1513 111.19 77.1897 110.902 77.1897C110.671 77.1897 110.595 77.2473 110.595 77.3433C110.595 77.4777 110.729 77.5353 110.979 77.5353C111.363 77.5353 111.862 77.4969 112.303 77.4969C112.764 77.4777 113.186 77.4777 113.397 77.4777C113.685 77.4777 114.261 77.4969 114.837 77.5353C115.394 77.5545 115.951 77.5929 116.181 77.5929C119.713 77.5929 121.307 75.462 121.307 73.4079C121.307 71.1619 119.387 69.7989 117.813 69.2614C118.869 68.4168 119.771 67.4761 119.771 65.902C119.771 64.8846 119.156 63.0225 115.682 63.0225C115.029 63.0225 114.28 63.0801 113.34 63.0801C112.956 63.0801 111.747 63.0225 110.729 63.0225C110.441 63.0225 110.307 63.0609 110.307 63.1952C110.307 63.3296 110.422 63.368 110.633 63.368C110.902 63.368 111.228 63.3872 111.382 63.4256C112.015 63.56 112.169 63.8671 112.207 64.5198C112.246 65.1341 112.246 65.6716 112.246 68.5895V71.9682ZM114.549 64.1743C114.549 63.9631 114.588 63.8863 114.722 63.8479C114.914 63.8095 115.087 63.8095 115.356 63.8095C117.006 63.8095 117.755 65.4989 117.755 66.785C117.755 67.7257 117.467 68.4168 116.968 68.8199C116.642 69.1079 116.219 69.1846 115.586 69.1846C115.144 69.1846 114.856 69.1654 114.684 69.1271C114.607 69.1079 114.549 69.0695 114.549 68.9159V64.1743ZM118.945 74.2718C118.945 76.2683 117.486 76.729 116.623 76.729C116.181 76.729 115.739 76.7098 115.221 76.4986C114.607 76.2491 114.549 75.9227 114.549 74.6557V70.1061C114.549 70.0101 114.588 69.9717 114.664 69.9717C114.952 69.9717 115.144 69.9717 115.49 69.9909C116.239 70.0293 116.68 70.1637 117.083 70.4516C118.542 71.4691 118.945 73.0816 118.945 74.2718Z" fill="white" class="svg-elem-11"></path>
<path d="M125.06 72.7936C125.06 74.291 125.06 75.5772 124.983 76.2683C124.925 76.7482 124.829 77.0553 124.484 77.1321C124.33 77.1705 124.138 77.1897 123.889 77.1897C123.677 77.1897 123.62 77.2857 123.62 77.3625C123.62 77.4777 123.735 77.5353 123.946 77.5353C124.292 77.5353 124.714 77.5161 125.117 77.4969C125.52 77.4969 125.885 77.4777 126.077 77.4777C126.576 77.4777 127.21 77.4969 128.035 77.5161C128.86 77.5545 129.878 77.5737 131.145 77.5737C131.778 77.5737 131.932 77.5737 132.047 77.1513C132.143 76.825 132.278 75.7116 132.278 75.3468C132.278 75.1741 132.258 74.9629 132.124 74.9629C132.009 74.9629 131.97 75.0397 131.932 75.2124C131.817 75.8843 131.625 76.2299 131.202 76.4218C130.761 76.6138 130.051 76.633 129.609 76.633C127.881 76.633 127.363 76.3835 127.325 75.27C127.306 74.7901 127.325 73.4079 127.325 72.8512V71.5459C127.325 71.4499 127.344 71.3731 127.421 71.3731C127.843 71.3731 129.763 71.4115 130.07 71.4499C130.703 71.5075 130.915 71.757 131.011 72.0834C131.049 72.2945 131.049 72.5057 131.068 72.6785C131.068 72.7553 131.107 72.8128 131.222 72.8128C131.375 72.8128 131.394 72.5825 131.394 72.4481C131.394 72.3329 131.433 71.6802 131.471 71.3539C131.567 70.5284 131.606 70.2597 131.606 70.1637C131.606 70.0677 131.548 69.9909 131.471 69.9909C131.394 69.9909 131.337 70.0869 131.202 70.2021C131.049 70.3748 130.799 70.4132 130.396 70.4516C130.012 70.49 127.824 70.49 127.44 70.49C127.344 70.49 127.325 70.4132 127.325 70.3173V66.2859C127.325 66.1899 127.363 66.1323 127.44 66.1323C127.785 66.1323 129.801 66.1707 130.089 66.2091C130.934 66.2859 131.068 66.5163 131.202 66.8042C131.298 66.9962 131.318 67.2842 131.318 67.3993C131.318 67.5337 131.337 67.6105 131.452 67.6105C131.586 67.6105 131.625 67.4185 131.644 67.3417C131.682 67.1498 131.721 66.4395 131.74 66.2667C131.778 65.518 131.874 65.3261 131.874 65.2109C131.874 65.1341 131.855 65.0573 131.759 65.0573C131.682 65.0573 131.586 65.1149 131.49 65.1341C131.356 65.1533 131.087 65.2109 130.78 65.2301C130.454 65.2493 126.71 65.2301 126.173 65.2301C125.693 65.2301 124.618 65.1917 123.735 65.1917C123.485 65.1917 123.351 65.2301 123.351 65.3453C123.351 65.4605 123.466 65.518 123.639 65.518C123.889 65.518 124.176 65.5372 124.311 65.5756C124.848 65.7292 125.002 65.902 125.04 66.4587C125.06 66.977 125.06 67.4377 125.06 69.9141V72.7936Z" fill="white" class="svg-elem-12"></path>
<path d="M140.823 73.4271C140.9 73.4271 140.958 73.4463 140.996 73.5423L142.302 76.825C142.378 77.0169 142.263 77.1705 142.148 77.1897C141.975 77.2089 141.937 77.2665 141.937 77.3625C141.937 77.4777 142.129 77.4777 142.436 77.4969C143.857 77.5353 145.085 77.5353 145.68 77.5353C146.314 77.5353 146.41 77.4969 146.41 77.3625C146.41 77.2473 146.333 77.1897 146.179 77.1897C145.987 77.1897 145.795 77.1705 145.546 77.1321C145.239 77.0745 144.759 76.8634 144.106 75.3852C143.031 72.9088 140.209 66.2283 139.806 65.3261C139.633 64.9613 139.556 64.8078 139.307 64.8078C139.134 64.8078 139 64.9997 138.808 65.4605L134.392 75.7308C134.047 76.5562 133.759 77.0553 132.991 77.1705C132.838 77.1705 132.646 77.1897 132.492 77.1897C132.358 77.1897 132.3 77.2665 132.3 77.3625C132.3 77.4969 132.396 77.5353 132.607 77.5353C133.49 77.5353 134.392 77.4777 134.565 77.4777C135.103 77.4777 135.89 77.5353 136.447 77.5353C136.619 77.5353 136.715 77.4969 136.715 77.3625C136.715 77.2665 136.677 77.1897 136.466 77.1897H136.216C135.698 77.1897 135.544 77.0169 135.544 76.729C135.544 76.537 135.621 76.1339 135.794 75.7308L136.696 73.5423C136.734 73.4463 136.754 73.4271 136.85 73.4271H140.823ZM137.195 72.5249C137.138 72.5249 137.099 72.4865 137.138 72.4097L138.769 68.2824C138.789 68.2248 138.808 68.1288 138.865 68.1288C138.904 68.1288 138.923 68.2248 138.942 68.2824L140.535 72.4289C140.555 72.4865 140.535 72.5249 140.459 72.5249H137.195Z" fill="white" class="svg-elem-13"></path>
<path d="M147.426 72.3137C147.426 74.6749 148.098 75.8843 148.962 76.633C150.191 77.708 151.937 77.7464 152.821 77.7464C153.915 77.7464 155.201 77.5737 156.391 76.5754C157.812 75.4044 158.004 73.4847 158.004 71.661V69.9141C158.004 67.4377 158.023 66.977 158.042 66.4587C158.08 65.8828 158.196 65.6524 158.656 65.5756C158.868 65.5372 158.964 65.518 159.155 65.518C159.347 65.518 159.443 65.4605 159.443 65.3453C159.443 65.2301 159.328 65.1917 159.098 65.1917C158.445 65.1917 157.313 65.2301 157.121 65.2301C157.101 65.2301 155.969 65.1917 155.105 65.1917C154.875 65.1917 154.759 65.2301 154.759 65.3453C154.759 65.4605 154.855 65.518 155.047 65.518C155.239 65.518 155.527 65.5372 155.662 65.5756C156.199 65.7292 156.334 65.902 156.372 66.4587C156.391 66.977 156.41 67.4377 156.41 69.9141V71.9682C156.41 73.6383 156.372 75.0589 155.431 75.9419C154.759 76.5946 153.896 76.8058 153.166 76.8058C152.59 76.8058 151.784 76.7482 151.035 76.1531C150.21 75.5004 149.749 74.5789 149.749 72.1985V69.9141C149.749 67.4377 149.749 66.977 149.787 66.4587C149.826 65.8828 149.96 65.6524 150.402 65.5756C150.613 65.5372 150.709 65.518 150.901 65.518C151.074 65.518 151.17 65.4605 151.17 65.3453C151.17 65.2301 151.054 65.1917 150.805 65.1917C150.191 65.1917 149.058 65.2301 148.636 65.2301C148.137 65.2301 147.004 65.1917 146.102 65.1917C145.852 65.1917 145.737 65.2301 145.737 65.3453C145.737 65.4605 145.833 65.518 146.025 65.518C146.255 65.518 146.543 65.5372 146.678 65.5756C147.215 65.7292 147.369 65.8828 147.407 66.4587C147.445 66.977 147.426 67.4377 147.426 69.9141V72.3137Z" fill="white" class="svg-elem-14"></path>
<path d="M164.987 72.7936C164.987 74.291 164.987 75.5772 164.91 76.2683C164.852 76.7482 164.756 77.0553 164.411 77.1321C164.277 77.1705 164.065 77.1897 163.816 77.1897C163.605 77.1897 163.547 77.2857 163.547 77.3625C163.547 77.4777 163.662 77.5353 163.873 77.5353C164.545 77.5353 165.697 77.4777 166.081 77.4777C166.561 77.4777 167.694 77.5353 168.807 77.5353C168.999 77.5353 169.133 77.4777 169.133 77.3625C169.133 77.2857 169.057 77.1897 168.865 77.1897C168.615 77.1897 168.231 77.1705 168.001 77.1321C167.502 77.0553 167.406 76.7482 167.348 76.2875C167.271 75.5772 167.252 74.291 167.252 72.7936V66.1899L169.383 66.2283C170.899 66.2475 171.341 66.7466 171.379 67.169L171.399 67.3417C171.418 67.5913 171.456 67.6681 171.591 67.6681C171.686 67.6681 171.725 67.5721 171.744 67.3993C171.744 66.977 171.782 65.7676 171.782 65.4221C171.782 65.1725 171.763 65.0765 171.648 65.0765C171.591 65.0765 171.456 65.1149 171.187 65.1533C170.938 65.1917 170.573 65.2301 170.036 65.2301H163.182C162.626 65.2301 161.992 65.2109 161.493 65.1533C161.071 65.0957 160.898 64.9613 160.764 64.9613C160.668 64.9613 160.61 65.0573 160.572 65.2685C160.533 65.4029 160.207 66.977 160.207 67.2458C160.207 67.4185 160.245 67.5145 160.36 67.5145C160.476 67.5145 160.514 67.4377 160.552 67.3034C160.591 67.1882 160.668 66.977 160.84 66.7466C161.09 66.3819 161.493 66.2667 162.472 66.2475L164.987 66.1899V72.7936Z" fill="white" class="svg-elem-15"></path>
<path d="M176.806 74.6365C176.806 74.9053 176.806 75.5772 176.749 76.2683C176.71 76.7482 176.576 77.0553 176.23 77.1321C176.077 77.1705 175.866 77.1897 175.635 77.1897C175.443 77.1897 175.366 77.2857 175.366 77.3625C175.366 77.4969 175.501 77.5353 175.731 77.5353C176.365 77.5353 177.497 77.4777 177.92 77.4777C178.38 77.4777 179.513 77.5353 180.569 77.5353C180.799 77.5353 180.934 77.4777 180.934 77.3625C180.934 77.2857 180.838 77.1897 180.646 77.1897C180.415 77.1897 180.05 77.1705 179.801 77.1321C179.302 77.0553 179.148 76.7482 179.11 76.2683C179.071 75.5772 179.071 74.9053 179.071 74.6365V73.3312C179.071 72.7936 179.033 72.2945 179.283 71.6994C179.59 71.0083 182.009 67.1306 182.565 66.4779C182.93 66.0364 183.084 65.8828 183.448 65.71C183.698 65.5948 184.005 65.518 184.178 65.518C184.37 65.518 184.504 65.4413 184.504 65.3261C184.504 65.2301 184.389 65.1917 184.197 65.1917C183.871 65.1917 182.757 65.2301 182.392 65.2301C181.893 65.2301 181.298 65.1917 180.742 65.1917C180.55 65.1917 180.454 65.2301 180.454 65.3453C180.454 65.4797 180.607 65.4989 180.761 65.5372C181.049 65.5948 181.125 65.7484 181.125 65.902C181.125 66.1132 181.049 66.4011 180.876 66.7658C180.626 67.265 178.572 70.7588 178.361 71.1427C178.073 70.682 175.866 66.8618 175.558 66.3627C175.424 66.1323 175.347 65.9404 175.347 65.806C175.347 65.6716 175.443 65.5948 175.578 65.5564C175.846 65.4797 175.962 65.4797 175.962 65.3453C175.962 65.2301 175.866 65.1917 175.712 65.1917C174.944 65.1917 174.157 65.2301 173.792 65.2301C173.236 65.2301 171.969 65.1917 171.681 65.1917C171.469 65.1917 171.354 65.2301 171.354 65.3453C171.354 65.4605 171.469 65.518 171.604 65.518C171.815 65.518 172.103 65.614 172.314 65.7292C172.64 65.902 172.986 66.2859 173.408 66.881C174.003 67.7449 176.307 71.3347 176.422 71.5842C176.653 72.0642 176.806 72.4097 176.806 73.2928V74.6365Z" fill="white" class="svg-elem-16"></path>
<path d="M66.0391 97.2349C65.5666 97.2349 65.1386 97.1321 64.755 96.9264C64.3715 96.7152 64.0685 96.4261 63.8462 96.0592C63.6294 95.6924 63.521 95.281 63.521 94.8252C63.521 94.375 63.6294 93.9664 63.8462 93.5995C64.0685 93.2327 64.3715 92.9436 64.755 92.7324C65.1386 92.5211 65.5666 92.4155 66.0391 92.4155C66.8117 92.4155 67.4093 92.649 67.8317 93.1159L67.4482 93.5078C67.0758 93.1298 66.6116 92.9408 66.0558 92.9408C65.6889 92.9408 65.3581 93.0242 65.0635 93.191C64.7689 93.3522 64.5382 93.5773 64.3715 93.8663C64.2047 94.1498 64.1213 94.4695 64.1213 94.8252C64.1213 95.181 64.2047 95.5034 64.3715 95.7924C64.5382 96.0759 64.7689 96.301 65.0635 96.4678C65.3581 96.629 65.6889 96.7096 66.0558 96.7096C66.6227 96.7096 67.0869 96.5206 67.4482 96.1426L67.8317 96.5345C67.4037 97.0014 66.8062 97.2349 66.0391 97.2349Z" fill="white" class="svg-elem-17"></path>
<path d="M72.2389 97.1849L71.1716 95.7007C71.0271 95.7118 70.9187 95.7174 70.8465 95.7174H69.6124V97.1849H69.0121V92.4739H70.8465C71.4579 92.4739 71.9387 92.6184 72.2889 92.9075C72.6391 93.191 72.8142 93.5884 72.8142 94.0998C72.8142 94.4611 72.7197 94.7696 72.5307 95.0253C72.3473 95.281 72.0833 95.4672 71.7386 95.584L72.8893 97.1849H72.2389ZM70.8131 95.2254C71.2634 95.2254 71.608 95.1282 71.847 94.9336C72.0916 94.7391 72.2139 94.4611 72.2139 94.0998C72.2139 93.7385 72.0944 93.4606 71.8554 93.266C71.6163 93.0715 71.2689 92.9742 70.8131 92.9742H69.6124V95.2254H70.8131Z" fill="white" class="svg-elem-18"></path>
<path d="M77.6421 96.6846V97.1849H74.2152V92.4739H77.5421V92.9742H74.8156V94.5501H77.2503V95.042H74.8156V96.6846H77.6421Z" fill="white" class="svg-elem-19"></path>
<path d="M81.8729 95.9675H79.2298L78.6794 97.1849H78.0791L80.2553 92.4739H80.8473L83.0235 97.1849H82.4232L81.8729 95.9675ZM81.6561 95.4839L80.5555 93.0409L79.4465 95.4839H81.6561Z" fill="white" class="svg-elem-20"></path>
<path d="M84.4452 92.9742H82.7859V92.4739H86.7048V92.9742H85.0455V97.1849H84.4452V92.9742Z" fill="white" class="svg-elem-21"></path>
<path d="M91.0367 96.6846V97.1849H87.6098V92.4739H90.9366V92.9742H88.2101V94.5501H90.6448V95.042H88.2101V96.6846H91.0367Z" fill="white" class="svg-elem-22"></path>
<path d="M92.3325 92.4739H94.3086C94.8311 92.4739 95.2869 92.5739 95.676 92.7741C96.0651 92.9686 96.3625 93.2438 96.5682 93.5995C96.7794 93.9497 96.885 94.3583 96.885 94.8252C96.885 95.2921 96.7794 95.7035 96.5682 96.0592C96.3625 96.415 96.0651 96.6929 95.676 96.893C95.2869 97.0876 94.8311 97.1849 94.3086 97.1849H92.3325V92.4739ZM94.2836 96.6846C94.9117 96.6846 95.4009 96.5178 95.7511 96.1843C96.1068 95.8452 96.2847 95.3922 96.2847 94.8252C96.2847 94.2638 96.1068 93.8163 95.7511 93.4828C95.4009 93.1437 94.9117 92.9742 94.2836 92.9742H92.9328V96.6846H94.2836Z" fill="white" class="svg-elem-23"></path>
<path d="M106.982 92.4739L105.373 97.1849H104.747L103.397 93.2994L102.046 97.1849H101.404L99.7945 92.4739H100.42L101.746 96.4094L103.121 92.4739H103.688L105.047 96.4261L106.398 92.4739H106.982Z" fill="white" class="svg-elem-24"></path>
<path d="M108.186 92.4739H108.786V97.1849H108.186V92.4739Z" fill="white" class="svg-elem-25"></path>
<path d="M111.356 92.9742H109.697V92.4739H113.616V92.9742H111.957V97.1849H111.356V92.9742Z" fill="white" class="svg-elem-26"></path>
<path d="M114.521 92.4739H115.121V94.5417H117.981V92.4739H118.582V97.1849H117.981V95.0503H115.121V97.1849H114.521V92.4739Z" fill="white" class="svg-elem-27"></path>
</g>
</svg>