<svg width="18" height="18" viewBox="0 0 18 18" fill="none" xmlns="http://www.w3.org/2000/svg">
<path fill-rule="evenodd" clip-rule="evenodd" d="M9 2C11.28 2 11.55 2.01 12.45 2.05C12.9931 2.05033 13.5317 2.14857 14.04 2.34C14.7829 2.62952 15.3705 3.2171 15.66 3.96C15.8514 4.46827 15.9497 5.00688 15.95 5.55C15.99 6.45 16 6.72 16 9C16 11.28 15.99 11.55 15.95 12.45C15.9497 12.9931 15.8514 13.5317 15.66 14.04C15.3705 14.7829 14.7829 15.3705 14.04 15.66C13.5317 15.8514 12.9931 15.9497 12.45 15.95C11.55 15.99 11.28 16 9 16C6.72 16 6.45 15.99 5.55 15.95C5.00688 15.9497 4.46827 15.8514 3.96 15.66C3.2171 15.3705 2.62952 14.7829 2.34 14.04C2.14857 13.5317 2.05033 12.9931 2.05 12.45C2.01 11.55 2 11.28 2 9C2 6.72 2.01 6.45 2.05 5.55C2.05033 5.00688 2.14857 4.46827 2.34 3.96C2.62952 3.2171 3.2171 2.62952 3.96 2.34C4.46827 2.14857 5.00688 2.05033 5.55 2.05C6.45 2.01 6.72 2 9 2ZM9 0C6.56 0 6.25 0.01 5.29 0.05C4.54206 0.0703348 3.8024 0.212187 3.1 0.47C1.89502 0.941681 0.941681 1.89502 0.47 3.1C0.212187 3.8024 0.0703348 4.54206 0.05 5.29C0.01 6.25 0 6.56 0 9C0 11.44 0.01 11.75 0.05 12.71C0.0703348 13.4579 0.212187 14.1976 0.47 14.9C0.941681 16.105 1.89502 17.0583 3.1 17.53C3.8024 17.7878 4.54206 17.9297 5.29 17.95C6.25 17.99 6.56 18 9 18C11.44 18 11.75 17.99 12.71 17.95C13.4579 17.9297 14.1976 17.7878 14.9 17.53C16.105 17.0583 17.0583 16.105 17.53 14.9C17.7878 14.1976 17.9297 13.4579 17.95 12.71C17.99 11.75 18 11.44 18 9C18 6.56 17.99 6.25 17.95 5.29C17.9297 4.54206 17.7878 3.8024 17.53 3.1C17.0583 1.89502 16.105 0.941681 14.9 0.47C14.1976 0.212187 13.4579 0.0703348 12.71 0.05C11.75 0.01 11.44 0 9 0V0ZM9 5C6.79086 5 5 6.79086 5 9C5 11.2091 6.79086 13 9 13C11.2091 13 13 11.2091 13 9C13 6.79086 11.2091 5 9 5ZM9 11C7.89543 11 7 10.1046 7 9C7 7.89543 7.89543 7 9 7C10.1046 7 11 7.89543 11 9C10.9967 10.1032 10.1032 10.9967 9 11Z" fill="#536073"/>
</svg>
