<svg width="19" height="15" viewBox="0 0 19 15" fill="none" xmlns="http://www.w3.org/2000/svg">
<path fill-rule="evenodd" clip-rule="evenodd" d="M18.005 1.774C17.343 2.076 16.631 2.279 15.883 2.37C16.646 1.9 17.232 1.158 17.508 0.275C16.794 0.71 16.003 1.025 15.162 1.195C14.488 0.459 13.528 0 12.466 0C10.426 0 8.772 1.693 8.772 3.784C8.772 4.079 8.805 4.368 8.868 4.647C5.798 4.488 3.076 2.981 1.254 0.692C0.936 1.251 0.754 1.9 0.754 2.595C0.754 3.907 1.406 5.066 2.397 5.744C1.792 5.725 1.222 5.553 0.724 5.271C0.723 5.288 0.723 5.302 0.723 5.319C0.723 7.151 1.997 8.681 3.687 9.028C3.377 9.115 3.05 9.163 2.714 9.163C2.475 9.163 2.244 9.139 2.018 9.094C2.489 10.597 3.853 11.691 5.469 11.722C4.205 12.737 2.612 13.341 0.881 13.341C0.583 13.341 0.289 13.324 0 13.288C1.635 14.363 3.577 14.988 5.663 14.988C12.457 14.988 16.172 9.223 16.172 4.222C16.172 4.058 16.169 3.893 16.162 3.733C16.884 3.199 17.51 2.533 18.005 1.774Z" fill="#536073"/>
</svg>
